{"glyphs":{"0":{"ha":840,"x_min":42,"x_max":798,"o":"m 420 -18 q 266 21 335 -18 q 146 130 197 60 q 69 291 96 199 q 42 486 42 382 q 69 682 42 590 q 146 842 96 773 q 266 951 197 912 q 420 990 335 990 q 574 951 505 990 q 693 842 644 912 q 770 682 743 773 q 798 486 798 590 q 770 291 798 382 q 693 130 743 199 q 574 21 644 60 q 420 -18 505 -18 m 420 151 q 543 199 494 151 q 615 322 592 246 q 639 486 639 399 q 614 655 639 578 q 540 776 589 731 q 420 821 492 821 q 323 793 364 821 q 254 719 281 766 q 214 611 227 672 q 201 486 201 551 q 225 323 201 399 q 298 199 249 246 q 420 151 347 151 z "},"1":{"ha":458,"x_min":56,"x_max":347,"o":"m 178 0 l 178 803 l 56 803 l 101 972 l 347 972 l 347 0 l 178 0 z "},"2":{"ha":794,"x_min":56,"x_max":710,"o":"m 56 0 l 56 151 q 163 236 101 185 q 290 345 224 286 q 410 463 355 403 q 501 575 466 522 q 536 667 536 628 q 515 744 536 709 q 460 800 494 779 q 383 821 426 821 q 306 800 341 821 q 251 744 272 779 q 230 667 230 709 l 60 667 q 105 832 60 758 q 223 948 149 905 q 383 990 296 990 q 545 947 472 990 q 662 830 618 903 q 706 667 706 756 q 688 572 706 619 q 640 475 671 524 q 566 377 608 426 q 473 275 524 327 q 365 169 422 224 l 710 169 l 710 0 l 56 0 z "},"3":{"ha":710,"x_min":42,"x_max":669,"o":"m 355 -18 q 196 24 267 -18 q 83 136 125 65 q 42 292 42 206 l 211 292 q 230 222 211 253 q 281 170 248 190 q 355 151 313 151 q 426 170 393 151 q 479 222 459 190 q 499 292 499 253 q 472 377 499 343 q 397 427 445 410 q 285 444 349 444 l 285 574 q 421 607 371 574 q 472 703 472 640 q 455 763 472 735 q 411 806 438 790 q 351 822 383 822 q 286 806 317 822 q 235 763 255 790 q 215 703 215 735 l 46 703 q 70 815 46 763 q 137 907 94 867 q 234 969 180 947 q 349 992 289 992 q 494 953 427 992 q 601 849 560 914 q 641 703 641 783 q 615 592 641 647 q 540 516 588 538 q 610 465 582 501 q 654 384 639 429 q 669 292 669 338 q 626 136 669 207 q 511 24 583 66 q 355 -18 440 -18 z "},"4":{"ha":804,"x_min":56,"x_max":721,"o":"m 469 0 l 469 235 l 56 235 l 56 406 l 430 972 l 639 972 l 639 405 l 721 405 l 721 235 l 639 235 l 639 0 l 469 0 m 252 406 l 469 405 l 469 741 l 252 406 z "},"5":{"ha":798,"x_min":49,"x_max":715,"o":"m 382 -18 q 213 27 288 -18 q 93 149 137 73 q 49 315 49 224 l 218 315 q 240 232 218 269 q 300 173 263 195 q 382 151 337 151 q 464 173 427 151 q 523 232 501 195 q 545 315 545 269 q 526 398 545 360 q 464 458 507 435 q 351 481 422 481 l 101 481 l 204 972 l 682 972 l 682 803 l 342 803 l 310 650 l 379 649 q 553 601 478 646 q 672 482 629 557 q 715 315 715 408 q 689 186 715 247 q 617 80 663 126 q 511 8 572 34 q 382 -18 451 -18 z "},"6":{"ha":763,"x_min":35,"x_max":721,"o":"m 376 -18 q 206 28 283 -18 q 81 153 128 75 q 35 325 35 231 q 46 415 35 374 q 82 499 58 457 l 354 972 l 551 972 l 368 656 q 476 647 424 660 q 573 603 528 633 q 651 531 617 573 q 702 436 684 488 q 721 325 721 384 q 694 192 721 254 q 620 83 667 131 q 510 9 573 35 q 376 -18 448 -18 m 376 151 q 467 176 427 151 q 529 240 506 201 q 551 324 551 280 q 528 412 551 372 q 466 475 506 451 q 378 499 427 499 q 288 474 327 499 q 226 410 249 449 q 204 324 204 370 q 228 236 204 275 q 292 174 253 197 q 376 151 331 151 z "},"7":{"ha":764,"x_min":28,"x_max":736,"o":"m 76 0 l 540 803 l 28 803 l 28 972 l 736 972 l 736 803 l 272 0 l 76 0 z "},"8":{"ha":757,"x_min":56,"x_max":701,"o":"m 378 -18 q 215 23 288 -18 q 99 133 142 64 q 56 287 56 202 q 86 412 56 353 q 167 511 116 471 q 102 598 127 548 q 76 706 76 649 q 117 849 76 785 q 227 952 158 914 q 378 990 295 990 q 529 952 461 990 q 638 849 597 914 q 679 706 679 785 q 655 598 679 649 q 588 511 630 548 q 671 412 641 471 q 701 287 701 353 q 658 134 701 203 q 541 23 615 65 q 378 -18 467 -18 m 378 151 q 451 170 418 151 q 503 219 483 188 q 522 287 522 249 q 503 355 522 324 q 451 404 483 385 q 378 422 418 422 q 306 404 338 422 q 253 355 273 385 q 233 287 233 324 q 253 219 233 249 q 306 170 273 188 q 378 151 338 151 m 378 592 q 440 607 412 592 q 484 649 467 623 q 500 706 500 674 q 484 764 500 738 q 440 805 467 790 q 378 821 412 821 q 317 805 344 821 q 272 764 289 790 q 256 706 256 738 q 272 649 256 674 q 317 607 289 623 q 378 592 344 592 z "},"9":{"ha":762,"x_min":42,"x_max":720,"o":"m 201 0 l 388 323 q 257 342 319 319 q 147 410 195 365 q 70 517 98 455 q 42 651 42 578 q 68 782 42 721 q 141 891 94 844 q 250 964 188 938 q 382 990 311 990 q 551 944 474 990 q 674 822 628 899 q 720 651 720 744 q 709 563 720 604 q 673 479 697 522 l 397 0 l 201 0 m 381 481 q 469 505 431 481 q 529 568 508 529 q 551 651 551 607 q 527 739 551 700 q 465 799 503 777 q 382 821 426 821 q 293 797 332 821 q 233 734 255 773 q 210 651 210 695 q 233 566 210 605 q 294 504 256 527 q 381 481 333 481 z "},"A":{"ha":1013,"x_min":56,"x_max":957,"o":"m 408 972 l 603 972 l 957 0 l 777 0 l 715 172 l 298 172 l 235 0 l 56 0 l 408 972 m 360 342 l 652 342 l 506 742 l 360 342 z "},"Á":{"ha":1013,"x_min":56,"x_max":957,"o":"m 408 972 l 603 972 l 957 0 l 777 0 l 715 172 l 298 172 l 235 0 l 56 0 l 408 972 m 360 342 l 652 342 l 506 742 l 360 342 m 462 1049 l 517 1249 l 687 1249 l 574 1049 l 462 1049 z "},"Ă":{"ha":1013,"x_min":56,"x_max":957,"o":"m 408 972 l 603 972 l 957 0 l 777 0 l 715 172 l 298 172 l 235 0 l 56 0 l 408 972 m 360 342 l 652 342 l 506 742 l 360 342 m 506 1033 q 391 1065 443 1033 q 307 1148 338 1096 q 276 1264 276 1201 l 381 1264 q 398 1201 381 1230 q 444 1156 415 1173 q 506 1139 472 1139 q 569 1156 541 1139 q 614 1201 597 1172 q 631 1264 631 1229 l 737 1264 q 706 1147 737 1199 q 622 1064 674 1094 q 506 1033 569 1033 z "},"Â":{"ha":1013,"x_min":56,"x_max":957,"o":"m 408 972 l 603 972 l 957 0 l 777 0 l 715 172 l 298 172 l 235 0 l 56 0 l 408 972 m 360 342 l 652 342 l 506 742 l 360 342 m 601 1249 l 735 1049 l 622 1049 l 506 1183 l 391 1049 l 278 1049 l 410 1249 l 601 1249 z "},"Ä":{"ha":1013,"x_min":56,"x_max":957,"o":"m 408 972 l 603 972 l 957 0 l 777 0 l 715 172 l 298 172 l 235 0 l 56 0 l 408 972 m 360 342 l 652 342 l 506 742 l 360 342 m 369 1021 q 306 1046 332 1021 q 281 1108 281 1071 q 306 1170 281 1144 q 369 1195 332 1195 q 431 1170 406 1195 q 456 1108 456 1144 q 431 1046 456 1071 q 369 1021 406 1021 m 644 1021 q 581 1046 607 1021 q 556 1108 556 1071 q 581 1170 556 1144 q 644 1195 607 1195 q 706 1170 681 1195 q 732 1108 732 1144 q 706 1046 732 1071 q 644 1021 681 1021 z "},"À":{"ha":1013,"x_min":56,"x_max":957,"o":"m 408 972 l 603 972 l 957 0 l 777 0 l 715 172 l 298 172 l 235 0 l 56 0 l 408 972 m 360 342 l 652 342 l 506 742 l 360 342 m 324 1249 l 494 1249 l 549 1049 l 436 1049 l 324 1249 z "},"Å":{"ha":1013,"x_min":56,"x_max":957,"o":"m 408 972 l 603 972 l 957 0 l 777 0 l 715 172 l 298 172 l 235 0 l 56 0 l 408 972 m 360 342 l 652 342 l 506 742 l 360 342 m 506 1019 q 415 1058 453 1019 q 377 1150 377 1097 q 394 1214 377 1185 q 441 1260 412 1243 q 506 1278 471 1278 q 597 1240 559 1278 q 635 1150 635 1202 q 597 1058 635 1096 q 506 1019 559 1019 m 506 1102 q 539 1116 525 1102 q 553 1149 553 1130 q 539 1182 553 1168 q 506 1195 525 1195 q 473 1182 487 1195 q 460 1150 460 1168 q 473 1116 460 1130 q 506 1102 487 1102 z "},"Ã":{"ha":1013,"x_min":56,"x_max":957,"o":"m 408 972 l 603 972 l 957 0 l 777 0 l 715 172 l 298 172 l 235 0 l 56 0 l 408 972 m 360 342 l 652 342 l 506 742 l 360 342 m 614 1045 q 553 1063 588 1045 q 483 1103 518 1081 q 422 1139 448 1126 q 387 1143 396 1153 q 376 1120 378 1134 q 381 1083 374 1106 l 281 1056 q 272 1154 263 1110 q 314 1225 281 1199 q 397 1252 346 1252 q 456 1237 423 1252 q 522 1202 489 1222 q 581 1168 556 1183 q 618 1153 607 1153 q 636 1163 632 1153 q 638 1186 640 1172 q 631 1213 636 1200 l 732 1245 q 740 1143 751 1188 q 696 1072 729 1098 q 614 1045 663 1045 z "},"Æ":{"ha":1165,"x_min":56,"x_max":1096,"o":"m 56 0 l 408 972 l 1096 972 l 1096 803 l 753 803 l 753 571 l 1029 571 l 1029 401 l 753 401 l 753 169 l 1096 169 l 1096 0 l 583 0 l 583 172 l 298 172 l 235 0 l 56 0 m 360 342 l 583 342 l 583 803 l 528 803 l 360 342 z "},"B":{"ha":815,"x_min":83,"x_max":760,"o":"m 83 0 l 83 972 l 438 972 q 577 941 515 972 q 675 850 639 909 q 712 712 712 792 q 701 640 712 676 q 669 575 691 604 q 614 533 648 547 q 688 492 659 522 q 732 424 716 463 q 754 344 748 385 q 760 269 760 303 q 722 131 760 192 q 619 35 683 71 q 477 0 555 0 l 83 0 m 253 145 l 460 145 q 535 165 501 145 q 588 221 568 185 q 608 301 608 256 q 588 375 608 340 q 535 431 568 410 q 460 453 501 453 l 253 453 l 253 145 m 253 596 l 418 596 q 506 628 469 596 q 542 713 542 660 q 506 798 542 769 q 418 826 469 826 l 253 826 l 253 596 z "},"C":{"ha":985,"x_min":56,"x_max":915,"o":"m 533 -18 q 348 21 435 -18 q 195 130 261 60 q 93 291 130 199 q 56 486 56 382 q 93 682 56 591 q 195 843 130 774 q 348 951 261 912 q 533 990 435 990 q 751 936 651 990 q 915 790 850 881 l 764 709 q 662 790 723 760 q 533 821 601 821 q 413 795 469 821 q 315 723 357 769 q 249 616 272 676 q 225 486 225 555 q 249 356 225 417 q 315 250 273 296 q 414 177 358 203 q 533 151 469 151 q 663 182 603 151 q 764 264 723 213 l 915 182 q 751 37 850 92 q 533 -18 651 -18 z "},"Ç":{"ha":985,"x_min":56,"x_max":915,"o":"m 538 -261 q 444 -249 489 -274 q 387 -174 400 -223 l 473 -151 q 489 -171 476 -164 q 515 -174 501 -178 q 536 -159 529 -171 q 540 -132 544 -147 q 524 -112 536 -118 q 497 -108 513 -106 l 408 -111 l 464 -13 q 348 22 403 -4 q 195 130 261 60 q 93 291 130 199 q 56 486 56 382 q 93 682 56 591 q 195 843 130 774 q 348 951 261 912 q 533 990 435 990 q 751 936 651 990 q 915 790 850 881 l 764 709 q 662 790 723 760 q 533 821 601 821 q 413 795 469 821 q 315 723 357 769 q 249 616 272 676 q 225 486 225 555 q 249 356 225 417 q 315 250 273 296 q 414 177 358 203 q 533 151 469 151 q 663 182 603 151 q 764 264 723 213 l 915 182 q 751 37 850 92 q 565 -17 665 -10 l 558 -30 q 601 -60 583 -40 q 626 -110 619 -81 q 614 -203 640 -159 q 538 -261 588 -248 z "},"D":{"ha":933,"x_min":83,"x_max":892,"o":"m 83 0 l 83 972 l 406 972 q 594 934 506 972 q 749 830 682 897 q 854 675 816 763 q 892 486 892 587 q 854 298 892 385 q 749 143 816 210 q 594 38 682 76 q 406 0 506 0 l 83 0 m 253 169 l 406 169 q 527 194 470 169 q 628 262 585 219 q 697 363 672 306 q 722 486 722 420 q 697 609 722 552 q 628 710 672 666 q 528 778 585 753 q 406 803 471 803 l 253 803 l 253 169 z "},"Ð":{"ha":1014,"x_min":69,"x_max":972,"o":"m 165 0 l 165 436 l 69 436 l 69 606 l 165 606 l 165 972 l 486 972 q 675 934 587 972 q 830 830 763 897 q 934 675 897 763 q 972 486 972 587 q 934 298 972 385 q 830 143 897 210 q 675 38 763 76 q 486 0 587 0 l 165 0 m 334 169 l 486 169 q 609 194 552 169 q 710 263 666 219 q 778 364 753 307 q 803 486 803 422 q 778 609 803 552 q 709 710 753 667 q 608 778 665 754 q 486 803 551 803 l 334 803 l 334 606 l 526 606 l 526 436 l 334 436 l 334 169 z "},"E":{"ha":763,"x_min":83,"x_max":693,"o":"m 83 0 l 83 972 l 693 972 l 693 803 l 253 803 l 253 606 l 602 606 l 602 436 l 253 436 l 253 169 l 693 169 l 693 0 l 83 0 z "},"É":{"ha":763,"x_min":83,"x_max":693,"o":"m 83 0 l 83 972 l 693 972 l 693 803 l 253 803 l 253 606 l 602 606 l 602 436 l 253 436 l 253 169 l 693 169 l 693 0 l 83 0 m 338 1049 l 393 1249 l 563 1249 l 450 1049 l 338 1049 z "},"Ê":{"ha":763,"x_min":83,"x_max":693,"o":"m 83 0 l 83 972 l 693 972 l 693 803 l 253 803 l 253 606 l 602 606 l 602 436 l 253 436 l 253 169 l 693 169 l 693 0 l 83 0 m 476 1249 l 611 1049 l 498 1049 l 381 1183 l 267 1049 l 153 1049 l 286 1249 l 476 1249 z "},"Ë":{"ha":763,"x_min":83,"x_max":693,"o":"m 83 0 l 83 972 l 693 972 l 693 803 l 253 803 l 253 606 l 602 606 l 602 436 l 253 436 l 253 169 l 693 169 l 693 0 l 83 0 m 244 1021 q 181 1046 207 1021 q 156 1108 156 1071 q 181 1170 156 1144 q 244 1195 207 1195 q 306 1170 281 1195 q 331 1108 331 1144 q 306 1046 331 1071 q 244 1021 281 1021 m 519 1021 q 456 1046 482 1021 q 431 1108 431 1071 q 456 1170 431 1144 q 519 1195 482 1195 q 581 1170 556 1195 q 607 1108 607 1144 q 581 1046 607 1071 q 519 1021 556 1021 z "},"È":{"ha":763,"x_min":83,"x_max":693,"o":"m 83 0 l 83 972 l 693 972 l 693 803 l 253 803 l 253 606 l 602 606 l 602 436 l 253 436 l 253 169 l 693 169 l 693 0 l 83 0 m 200 1249 l 369 1249 l 425 1049 l 312 1049 l 200 1249 z "},"F":{"ha":672,"x_min":83,"x_max":658,"o":"m 83 0 l 83 972 l 658 972 l 658 803 l 253 803 l 253 606 l 591 606 l 591 436 l 253 436 l 253 0 l 83 0 z "},"G":{"ha":1067,"x_min":56,"x_max":1014,"o":"m 533 -18 q 345 22 432 -18 q 193 131 258 61 q 92 292 128 201 q 56 488 56 383 q 95 689 56 597 q 202 848 134 781 q 357 952 270 915 q 537 989 443 989 q 741 940 642 989 q 915 789 840 891 l 764 708 q 657 793 717 765 q 535 821 597 821 q 418 796 474 821 q 318 725 362 771 q 250 618 275 680 q 225 484 225 557 q 249 355 225 415 q 316 248 274 294 q 415 177 359 203 q 536 151 472 151 q 620 165 579 151 q 698 204 662 178 q 764 267 735 230 q 812 350 792 303 l 635 350 l 635 498 l 1011 498 q 978 299 1014 392 q 876 134 942 206 q 722 22 810 63 q 533 -18 635 -18 z "},"H":{"ha":908,"x_min":83,"x_max":825,"o":"m 656 972 l 825 972 l 825 0 l 656 0 l 656 436 l 253 436 l 253 0 l 83 0 l 83 972 l 253 972 l 253 606 l 656 606 l 656 972 z "},"I":{"ha":378,"x_min":104,"x_max":274,"o":"m 104 0 l 104 972 l 274 972 l 274 0 l 104 0 z "},"Í":{"ha":378,"x_min":104,"x_max":369,"o":"m 104 0 l 104 972 l 274 972 l 274 0 l 104 0 m 145 1049 l 201 1249 l 370 1249 l 258 1049 l 145 1049 z "},"Î":{"ha":378,"x_min":-39,"x_max":418,"o":"m 104 0 l 104 972 l 274 972 l 274 0 l 104 0 m 284 1249 l 419 1049 l 306 1049 l 189 1183 l 74 1049 l -39 1049 l 94 1249 l 284 1249 z "},"Ï":{"ha":378,"x_min":-37,"x_max":415,"o":"m 104 0 l 104 972 l 274 972 l 274 0 l 104 0 m 52 1021 q -11 1046 15 1021 q -37 1108 -37 1071 q -11 1170 -37 1144 q 52 1195 15 1195 q 114 1170 88 1195 q 139 1108 139 1144 q 114 1046 139 1071 q 52 1021 88 1021 m 327 1021 q 264 1046 290 1021 q 238 1108 238 1071 q 264 1170 238 1144 q 327 1195 290 1195 q 389 1170 363 1195 q 415 1108 415 1144 q 389 1046 415 1071 q 327 1021 363 1021 z "},"Ì":{"ha":378,"x_min":8,"x_max":274,"o":"m 104 0 l 104 972 l 274 972 l 274 0 l 104 0 m 8 1249 l 177 1249 l 233 1049 l 119 1049 l 8 1249 z "},"J":{"ha":617,"x_min":28,"x_max":533,"o":"m 225 -18 q 120 0 172 -18 q 28 53 69 18 l 136 184 q 174 161 151 172 q 225 151 196 151 q 294 171 263 151 q 345 223 326 191 q 364 294 364 256 l 364 972 l 533 972 l 533 294 q 492 138 533 208 q 380 25 450 67 q 225 -18 310 -18 z "},"K":{"ha":815,"x_min":83,"x_max":796,"o":"m 794 0 l 573 0 l 300 381 l 253 325 l 253 0 l 83 0 l 83 972 l 253 972 l 253 588 l 574 972 l 796 972 l 410 514 l 794 0 z "},"L":{"ha":727,"x_min":83,"x_max":658,"o":"m 83 0 l 83 972 l 253 972 l 253 169 l 658 169 l 658 0 l 83 0 z "},"M":{"ha":1299,"x_min":83,"x_max":1215,"o":"m 83 0 l 272 972 l 413 972 l 649 349 l 886 972 l 1026 972 l 1215 0 l 1042 0 l 926 601 l 707 22 l 591 22 l 372 601 l 256 0 l 83 0 z "},"N":{"ha":930,"x_min":83,"x_max":847,"o":"m 83 0 l 83 972 l 267 972 l 677 306 l 677 972 l 847 972 l 847 0 l 664 0 l 253 666 l 253 0 l 83 0 z "},"Ñ":{"ha":930,"x_min":83,"x_max":847,"o":"m 83 0 l 83 972 l 267 972 l 677 306 l 677 972 l 847 972 l 847 0 l 664 0 l 253 666 l 253 0 l 83 0 m 573 1045 q 512 1063 547 1045 q 442 1103 477 1081 q 381 1139 407 1126 q 346 1143 355 1153 q 335 1120 337 1134 q 340 1083 333 1106 l 240 1056 q 231 1154 222 1110 q 273 1225 240 1199 q 356 1252 305 1252 q 415 1237 382 1252 q 481 1202 448 1222 q 540 1168 515 1183 q 577 1153 566 1153 q 595 1163 591 1153 q 597 1186 599 1172 q 590 1213 595 1200 l 691 1245 q 699 1143 710 1188 q 655 1072 688 1098 q 573 1045 622 1045 z "},"O":{"ha":1069,"x_min":56,"x_max":1014,"o":"m 535 -18 q 349 21 436 -18 q 197 130 263 60 q 93 291 131 199 q 56 486 56 382 q 93 682 56 590 q 197 842 131 773 q 349 951 263 912 q 535 990 436 990 q 721 951 634 990 q 874 842 808 912 q 977 682 940 773 q 1014 486 1014 590 q 977 291 1014 382 q 874 130 940 199 q 721 21 808 60 q 535 -18 634 -18 m 535 151 q 655 178 599 151 q 754 250 711 204 q 820 357 797 297 q 844 486 844 417 q 820 616 844 555 q 753 722 796 676 q 655 794 710 768 q 535 821 599 821 q 415 794 471 821 q 316 722 358 768 q 249 615 273 676 q 225 486 225 555 q 249 356 225 417 q 316 250 274 296 q 415 177 359 203 q 535 151 471 151 z "},"Ó":{"ha":1069,"x_min":56,"x_max":1014,"o":"m 535 -18 q 349 21 436 -18 q 197 130 263 60 q 93 291 131 199 q 56 486 56 382 q 93 682 56 590 q 197 842 131 773 q 349 951 263 912 q 535 990 436 990 q 721 951 634 990 q 874 842 808 912 q 977 682 940 773 q 1014 486 1014 590 q 977 291 1014 382 q 874 130 940 199 q 721 21 808 60 q 535 -18 634 -18 m 535 151 q 655 178 599 151 q 754 250 711 204 q 820 357 797 297 q 844 486 844 417 q 820 616 844 555 q 753 722 796 676 q 655 794 710 768 q 535 821 599 821 q 415 794 471 821 q 316 722 358 768 q 249 615 273 676 q 225 486 225 555 q 249 356 225 417 q 316 250 274 296 q 415 177 359 203 q 535 151 471 151 m 491 1049 l 547 1249 l 716 1249 l 603 1049 l 491 1049 z "},"Ô":{"ha":1069,"x_min":56,"x_max":1014,"o":"m 535 -18 q 349 21 436 -18 q 197 130 263 60 q 93 291 131 199 q 56 486 56 382 q 93 682 56 590 q 197 842 131 773 q 349 951 263 912 q 535 990 436 990 q 721 951 634 990 q 874 842 808 912 q 977 682 940 773 q 1014 486 1014 590 q 977 291 1014 382 q 874 130 940 199 q 721 21 808 60 q 535 -18 634 -18 m 535 151 q 655 178 599 151 q 754 250 711 204 q 820 357 797 297 q 844 486 844 417 q 820 616 844 555 q 753 722 796 676 q 655 794 710 768 q 535 821 599 821 q 415 794 471 821 q 316 722 358 768 q 249 615 273 676 q 225 486 225 555 q 249 356 225 417 q 316 250 274 296 q 415 177 359 203 q 535 151 471 151 m 630 1249 l 765 1049 l 651 1049 l 535 1183 l 420 1049 l 307 1049 l 440 1249 l 630 1249 z "},"Ö":{"ha":1069,"x_min":56,"x_max":1014,"o":"m 535 -18 q 349 21 436 -18 q 197 130 263 60 q 93 291 131 199 q 56 486 56 382 q 93 682 56 590 q 197 842 131 773 q 349 951 263 912 q 535 990 436 990 q 721 951 634 990 q 874 842 808 912 q 977 682 940 773 q 1014 486 1014 590 q 977 291 1014 382 q 874 130 940 199 q 721 21 808 60 q 535 -18 634 -18 m 535 151 q 655 178 599 151 q 754 250 711 204 q 820 357 797 297 q 844 486 844 417 q 820 616 844 555 q 753 722 796 676 q 655 794 710 768 q 535 821 599 821 q 415 794 471 821 q 316 722 358 768 q 249 615 273 676 q 225 486 225 555 q 249 356 225 417 q 316 250 274 296 q 415 177 359 203 q 535 151 471 151 m 398 1021 q 335 1046 360 1021 q 309 1108 309 1071 q 335 1170 309 1144 q 398 1195 360 1195 q 459 1170 434 1195 q 485 1108 485 1144 q 459 1046 485 1071 q 398 1021 434 1021 m 673 1021 q 610 1046 635 1021 q 584 1108 584 1071 q 610 1170 584 1144 q 673 1195 635 1195 q 735 1170 709 1195 q 760 1108 760 1144 q 735 1046 760 1071 q 673 1021 709 1021 z "},"Ò":{"ha":1069,"x_min":56,"x_max":1014,"o":"m 535 -18 q 349 21 436 -18 q 197 130 263 60 q 93 291 131 199 q 56 486 56 382 q 93 682 56 590 q 197 842 131 773 q 349 951 263 912 q 535 990 436 990 q 721 951 634 990 q 874 842 808 912 q 977 682 940 773 q 1014 486 1014 590 q 977 291 1014 382 q 874 130 940 199 q 721 21 808 60 q 535 -18 634 -18 m 535 151 q 655 178 599 151 q 754 250 711 204 q 820 357 797 297 q 844 486 844 417 q 820 616 844 555 q 753 722 796 676 q 655 794 710 768 q 535 821 599 821 q 415 794 471 821 q 316 722 358 768 q 249 615 273 676 q 225 486 225 555 q 249 356 225 417 q 316 250 274 296 q 415 177 359 203 q 535 151 471 151 m 353 1249 l 523 1249 l 578 1049 l 465 1049 l 353 1249 z "},"Ø":{"ha":1069,"x_min":56,"x_max":1014,"o":"m 310 -75 l 163 10 l 219 109 q 101 276 146 178 q 56 486 56 374 q 93 682 56 590 q 197 842 131 773 q 349 951 263 912 q 535 990 436 990 q 625 981 581 990 q 708 956 668 972 l 761 1047 l 908 963 l 851 864 q 970 697 926 795 q 1014 486 1014 599 q 977 291 1014 382 q 874 130 940 199 q 721 21 808 60 q 535 -18 634 -18 q 447 -9 490 -18 q 363 18 403 1 l 310 -75 m 310 265 l 622 804 q 580 817 602 813 q 535 821 558 821 q 415 794 471 821 q 316 722 358 768 q 249 615 273 676 q 225 486 225 555 q 248 365 225 422 q 310 265 271 308 m 535 151 q 655 178 599 151 q 754 250 711 204 q 820 357 797 297 q 844 486 844 417 q 822 608 844 551 q 761 708 800 665 l 449 169 q 491 156 469 160 q 535 151 513 151 z "},"Õ":{"ha":1069,"x_min":56,"x_max":1014,"o":"m 535 -18 q 349 21 436 -18 q 197 130 263 60 q 93 291 131 199 q 56 486 56 382 q 93 682 56 590 q 197 842 131 773 q 349 951 263 912 q 535 990 436 990 q 721 951 634 990 q 874 842 808 912 q 977 682 940 773 q 1014 486 1014 590 q 977 291 1014 382 q 874 130 940 199 q 721 21 808 60 q 535 -18 634 -18 m 535 151 q 655 178 599 151 q 754 250 711 204 q 820 357 797 297 q 844 486 844 417 q 820 616 844 555 q 753 722 796 676 q 655 794 710 768 q 535 821 599 821 q 415 794 471 821 q 316 722 358 768 q 249 615 273 676 q 225 486 225 555 q 249 356 225 417 q 316 250 274 296 q 415 177 359 203 q 535 151 471 151 m 642 1045 q 582 1063 617 1045 q 511 1103 547 1081 q 450 1139 476 1126 q 415 1143 424 1153 q 404 1120 406 1134 q 409 1083 402 1106 l 310 1056 q 300 1154 291 1110 q 342 1225 310 1199 q 426 1252 374 1252 q 484 1237 451 1252 q 551 1202 517 1222 q 610 1168 584 1183 q 647 1153 635 1153 q 665 1163 660 1153 q 667 1186 669 1172 q 660 1213 665 1200 l 760 1245 q 768 1143 779 1188 q 725 1072 758 1098 q 642 1045 692 1045 z "},"Œ":{"ha":1474,"x_min":56,"x_max":1404,"o":"m 535 -18 q 349 21 436 -18 q 197 130 263 60 q 93 291 131 199 q 56 486 56 382 q 93 682 56 590 q 197 842 131 773 q 349 951 263 912 q 535 990 436 990 q 653 973 597 990 q 759 925 710 956 q 847 851 808 894 l 847 972 l 1404 972 l 1404 803 l 1016 803 l 1016 571 l 1338 571 l 1338 401 l 1016 401 l 1016 169 l 1404 169 l 1404 0 l 847 0 l 847 121 q 759 48 808 78 q 653 -1 710 17 q 535 -18 597 -18 m 535 151 q 655 178 599 151 q 754 250 711 204 q 820 357 797 297 q 844 486 844 417 q 820 616 844 555 q 753 722 796 676 q 655 794 710 768 q 535 821 599 821 q 415 794 471 821 q 316 722 358 768 q 249 615 273 676 q 225 486 225 555 q 249 356 225 417 q 316 250 274 296 q 415 177 359 203 q 535 151 471 151 z "},"P":{"ha":769,"x_min":83,"x_max":713,"o":"m 83 0 l 83 972 l 431 972 q 574 933 510 972 q 676 826 638 893 q 713 680 713 760 q 675 532 713 598 q 572 426 636 465 q 431 387 507 387 l 253 387 l 253 0 l 83 0 m 253 556 l 413 556 q 478 574 449 556 q 526 623 508 592 q 544 691 544 653 q 526 760 544 729 q 478 808 508 790 q 413 826 449 826 l 253 826 l 253 556 z "},"Þ":{"ha":755,"x_min":83,"x_max":713,"o":"m 83 0 l 83 972 l 253 972 l 253 778 l 431 778 q 574 739 510 778 q 676 633 638 699 q 713 486 713 567 q 675 339 713 405 q 572 233 636 272 q 431 194 507 194 l 253 194 l 253 0 l 83 0 m 253 363 l 413 363 q 478 381 449 363 q 526 430 508 399 q 544 498 544 460 q 526 566 544 535 q 478 615 508 597 q 413 633 449 633 l 253 633 l 253 363 z "},"Q":{"ha":1092,"x_min":56,"x_max":1036,"o":"m 917 -29 l 808 78 q 682 10 751 35 q 535 -14 612 -14 q 349 25 436 -14 q 197 134 263 65 q 93 294 131 203 q 56 490 56 386 q 93 686 56 594 q 197 847 131 777 q 349 955 263 916 q 535 994 436 994 q 721 955 634 994 q 874 847 808 916 q 977 686 940 777 q 1014 490 1014 594 q 990 336 1014 409 q 926 201 967 263 l 1036 90 l 917 -29 m 535 156 q 614 168 575 156 q 685 202 653 180 l 597 290 l 717 410 l 799 327 q 833 405 822 363 q 844 490 844 447 q 820 620 844 560 q 753 727 796 681 q 655 799 710 773 q 535 825 599 825 q 415 799 471 825 q 316 726 358 772 q 249 619 273 680 q 225 490 225 559 q 249 361 225 422 q 316 254 274 300 q 415 182 359 208 q 535 156 471 156 z "},"R":{"ha":842,"x_min":83,"x_max":782,"o":"m 83 0 l 83 972 l 456 972 q 599 933 535 972 q 701 827 663 893 q 738 680 738 760 q 714 559 738 614 q 648 463 690 503 q 549 402 605 423 l 782 0 l 587 0 l 362 387 l 253 387 l 253 0 l 83 0 m 253 556 l 437 556 q 503 574 473 556 q 551 623 533 592 q 569 691 569 653 q 551 760 569 729 q 503 808 533 790 q 437 826 473 826 l 253 826 l 253 556 z "},"S":{"ha":867,"x_min":69,"x_max":798,"o":"m 433 -18 q 279 7 353 -18 q 149 80 205 33 q 69 194 94 128 l 228 253 q 268 202 238 225 q 341 165 298 179 q 433 151 384 151 q 528 167 484 151 q 599 211 572 183 q 626 276 626 239 q 598 339 626 315 q 525 378 569 364 q 433 401 481 393 q 248 450 330 417 q 118 542 166 483 q 71 695 71 601 q 122 849 71 783 q 255 952 172 915 q 433 989 338 989 q 588 964 513 989 q 718 891 662 939 q 798 776 774 843 l 638 718 q 599 769 628 746 q 526 805 569 792 q 433 819 483 819 q 340 803 384 819 q 268 759 296 787 q 240 695 240 731 q 266 625 240 649 q 336 591 292 601 q 433 571 380 580 q 613 519 531 556 q 746 423 696 483 q 796 276 796 363 q 746 122 796 188 q 613 19 696 56 q 433 -18 531 -18 z "},"T":{"ha":875,"x_min":56,"x_max":819,"o":"m 819 972 l 819 803 l 522 803 l 522 0 l 353 0 l 353 803 l 56 803 l 56 972 l 819 972 z "},"U":{"ha":944,"x_min":83,"x_max":861,"o":"m 473 -18 q 268 39 356 -18 q 132 192 181 96 q 83 406 83 288 l 83 972 l 253 972 l 253 406 q 279 278 253 336 q 354 186 305 220 q 473 151 403 151 q 592 186 544 151 q 666 278 641 220 q 692 406 692 336 l 692 972 l 861 972 l 861 406 q 833 241 861 317 q 754 106 806 164 q 632 15 703 47 q 473 -18 560 -18 z "},"Ú":{"ha":944,"x_min":83,"x_max":861,"o":"m 473 -18 q 268 39 356 -18 q 132 192 181 96 q 83 406 83 288 l 83 972 l 253 972 l 253 406 q 279 278 253 336 q 354 186 305 220 q 473 151 403 151 q 592 186 544 151 q 666 278 641 220 q 692 406 692 336 l 692 972 l 861 972 l 861 406 q 833 241 861 317 q 754 106 806 164 q 632 15 703 47 q 473 -18 560 -18 m 428 1049 l 483 1249 l 653 1249 l 540 1049 l 428 1049 z "},"Û":{"ha":944,"x_min":83,"x_max":861,"o":"m 473 -18 q 268 39 356 -18 q 132 192 181 96 q 83 406 83 288 l 83 972 l 253 972 l 253 406 q 279 278 253 336 q 354 186 305 220 q 473 151 403 151 q 592 186 544 151 q 666 278 641 220 q 692 406 692 336 l 692 972 l 861 972 l 861 406 q 833 241 861 317 q 754 106 806 164 q 632 15 703 47 q 473 -18 560 -18 m 567 1249 l 701 1049 l 588 1049 l 472 1183 l 357 1049 l 244 1049 l 376 1249 l 567 1249 z "},"Ü":{"ha":944,"x_min":83,"x_max":861,"o":"m 473 -18 q 268 39 356 -18 q 132 192 181 96 q 83 406 83 288 l 83 972 l 253 972 l 253 406 q 279 278 253 336 q 354 186 305 220 q 473 151 403 151 q 592 186 544 151 q 666 278 641 220 q 692 406 692 336 l 692 972 l 861 972 l 861 406 q 833 241 861 317 q 754 106 806 164 q 632 15 703 47 q 473 -18 560 -18 m 335 1021 q 272 1046 298 1021 q 247 1108 247 1071 q 272 1170 247 1144 q 335 1195 298 1195 q 397 1170 372 1195 q 422 1108 422 1144 q 397 1046 422 1071 q 335 1021 372 1021 m 610 1021 q 547 1046 573 1021 q 522 1108 522 1071 q 547 1170 522 1144 q 610 1195 573 1195 q 672 1170 647 1195 q 698 1108 698 1144 q 672 1046 698 1071 q 610 1021 647 1021 z "},"Ù":{"ha":944,"x_min":83,"x_max":861,"o":"m 473 -18 q 268 39 356 -18 q 132 192 181 96 q 83 406 83 288 l 83 972 l 253 972 l 253 406 q 279 278 253 336 q 354 186 305 220 q 473 151 403 151 q 592 186 544 151 q 666 278 641 220 q 692 406 692 336 l 692 972 l 861 972 l 861 406 q 833 241 861 317 q 754 106 806 164 q 632 15 703 47 q 473 -18 560 -18 m 291 1249 l 460 1249 l 516 1049 l 403 1049 l 291 1249 z "},"V":{"ha":1035,"x_min":56,"x_max":978,"o":"m 409 0 l 56 972 l 236 972 l 517 198 l 799 972 l 978 972 l 626 0 l 409 0 z "},"W":{"ha":1295,"x_min":56,"x_max":1238,"o":"m 305 0 l 56 972 l 231 972 l 401 308 l 570 972 l 725 972 l 894 308 l 1063 972 l 1238 972 l 991 0 l 799 0 l 647 589 l 498 0 l 305 0 z "},"X":{"ha":1005,"x_min":42,"x_max":963,"o":"m 42 0 l 397 489 l 46 972 l 255 972 l 502 632 l 750 972 l 959 972 l 608 489 l 963 0 l 753 0 l 502 344 l 252 0 l 42 0 z "},"Y":{"ha":921,"x_min":42,"x_max":879,"o":"m 679 972 l 879 972 l 545 438 l 545 0 l 376 0 l 376 438 l 42 972 l 242 972 l 460 623 l 679 972 z "},"Ý":{"ha":921,"x_min":42,"x_max":879,"o":"m 679 972 l 879 972 l 545 438 l 545 0 l 376 0 l 376 438 l 42 972 l 242 972 l 460 623 l 679 972 m 416 1049 l 472 1249 l 641 1249 l 528 1049 l 416 1049 z "},"Z":{"ha":897,"x_min":56,"x_max":842,"o":"m 56 0 l 56 169 l 613 803 l 56 803 l 56 972 l 842 972 l 842 803 l 284 169 l 842 169 l 842 0 l 56 0 z "},"a":{"ha":832,"x_min":42,"x_max":776,"o":"m 607 694 l 776 694 l 776 0 l 607 0 l 599 86 q 524 11 571 40 q 413 -18 477 -18 q 269 11 336 -18 q 150 92 201 40 q 70 210 99 143 q 42 355 42 278 q 69 494 42 429 q 146 609 97 560 q 260 686 195 658 q 399 714 324 714 q 522 683 467 714 q 615 606 576 653 l 607 694 m 409 145 q 505 172 463 145 q 570 245 547 199 q 594 347 594 292 q 570 450 594 403 q 505 523 547 496 q 409 550 463 550 q 311 523 356 550 q 241 449 267 495 q 215 347 215 403 q 242 245 215 291 q 312 172 268 199 q 409 145 356 145 z "},"á":{"ha":832,"x_min":42,"x_max":776,"o":"m 607 694 l 776 694 l 776 0 l 607 0 l 599 86 q 524 11 571 40 q 413 -18 477 -18 q 269 11 336 -18 q 150 92 201 40 q 70 210 99 143 q 42 355 42 278 q 69 494 42 429 q 146 609 97 560 q 260 686 195 658 q 399 714 324 714 q 522 683 467 714 q 615 606 576 653 l 607 694 m 409 145 q 505 172 463 145 q 570 245 547 199 q 594 347 594 292 q 570 450 594 403 q 505 523 547 496 q 409 550 463 550 q 311 523 356 550 q 241 449 267 495 q 215 347 215 403 q 242 245 215 291 q 312 172 268 199 q 409 145 356 145 m 382 771 l 438 971 l 607 971 l 494 771 l 382 771 z "},"â":{"ha":832,"x_min":42,"x_max":776,"o":"m 607 694 l 776 694 l 776 0 l 607 0 l 599 86 q 524 11 571 40 q 413 -18 477 -18 q 269 11 336 -18 q 150 92 201 40 q 70 210 99 143 q 42 355 42 278 q 69 494 42 429 q 146 609 97 560 q 260 686 195 658 q 399 714 324 714 q 522 683 467 714 q 615 606 576 653 l 607 694 m 409 145 q 505 172 463 145 q 570 245 547 199 q 594 347 594 292 q 570 450 594 403 q 505 523 547 496 q 409 550 463 550 q 311 523 356 550 q 241 449 267 495 q 215 347 215 403 q 242 245 215 291 q 312 172 268 199 q 409 145 356 145 m 521 971 l 656 771 l 542 771 l 426 905 l 311 771 l 198 771 l 331 971 l 521 971 z "},"ä":{"ha":832,"x_min":42,"x_max":776,"o":"m 607 694 l 776 694 l 776 0 l 607 0 l 599 86 q 524 11 571 40 q 413 -18 477 -18 q 269 11 336 -18 q 150 92 201 40 q 70 210 99 143 q 42 355 42 278 q 69 494 42 429 q 146 609 97 560 q 260 686 195 658 q 399 714 324 714 q 522 683 467 714 q 615 606 576 653 l 607 694 m 409 145 q 505 172 463 145 q 570 245 547 199 q 594 347 594 292 q 570 450 594 403 q 505 523 547 496 q 409 550 463 550 q 311 523 356 550 q 241 449 267 495 q 215 347 215 403 q 242 245 215 291 q 312 172 268 199 q 409 145 356 145 m 290 743 q 226 768 252 743 q 201 830 201 793 q 226 892 201 867 q 290 917 252 917 q 351 892 326 917 q 376 830 376 867 q 351 768 376 793 q 290 743 326 743 m 565 743 q 501 768 527 743 q 476 830 476 793 q 501 892 476 867 q 565 917 527 917 q 626 892 601 917 q 652 830 652 867 q 626 768 652 793 q 565 743 601 743 z "},"à":{"ha":832,"x_min":42,"x_max":776,"o":"m 607 694 l 776 694 l 776 0 l 607 0 l 599 86 q 524 11 571 40 q 413 -18 477 -18 q 269 11 336 -18 q 150 92 201 40 q 70 210 99 143 q 42 355 42 278 q 69 494 42 429 q 146 609 97 560 q 260 686 195 658 q 399 714 324 714 q 522 683 467 714 q 615 606 576 653 l 607 694 m 409 145 q 505 172 463 145 q 570 245 547 199 q 594 347 594 292 q 570 450 594 403 q 505 523 547 496 q 409 550 463 550 q 311 523 356 550 q 241 449 267 495 q 215 347 215 403 q 242 245 215 291 q 312 172 268 199 q 409 145 356 145 m 244 971 l 414 971 l 469 771 l 356 771 l 244 971 z "},"å":{"ha":832,"x_min":42,"x_max":776,"o":"m 607 694 l 776 694 l 776 0 l 607 0 l 599 86 q 524 11 571 40 q 413 -18 477 -18 q 269 11 336 -18 q 150 92 201 40 q 70 210 99 143 q 42 355 42 278 q 69 494 42 429 q 146 609 97 560 q 260 686 195 658 q 399 714 324 714 q 522 683 467 714 q 615 606 576 653 l 607 694 m 409 145 q 505 172 463 145 q 570 245 547 199 q 594 347 594 292 q 570 450 594 403 q 505 523 547 496 q 409 550 463 550 q 311 523 356 550 q 241 449 267 495 q 215 347 215 403 q 242 245 215 291 q 312 172 268 199 q 409 145 356 145 m 426 742 q 335 781 373 742 q 297 872 297 819 q 315 936 297 907 q 361 983 332 965 q 426 1000 391 1000 q 517 962 479 1000 q 555 872 555 924 q 517 780 555 818 q 426 742 479 742 m 426 824 q 459 838 445 824 q 473 872 473 852 q 459 904 473 890 q 426 917 445 917 q 393 904 407 917 q 380 872 380 890 q 393 838 380 852 q 426 824 407 824 z "},"ã":{"ha":832,"x_min":42,"x_max":776,"o":"m 607 694 l 776 694 l 776 0 l 607 0 l 599 86 q 524 11 571 40 q 413 -18 477 -18 q 269 11 336 -18 q 150 92 201 40 q 70 210 99 143 q 42 355 42 278 q 69 494 42 429 q 146 609 97 560 q 260 686 195 658 q 399 714 324 714 q 522 683 467 714 q 615 606 576 653 l 607 694 m 409 145 q 505 172 463 145 q 570 245 547 199 q 594 347 594 292 q 570 450 594 403 q 505 523 547 496 q 409 550 463 550 q 311 523 356 550 q 241 449 267 495 q 215 347 215 403 q 242 245 215 291 q 312 172 268 199 q 409 145 356 145 m 534 767 q 473 785 508 767 q 403 826 438 803 q 342 861 368 848 q 307 865 316 875 q 296 842 298 856 q 301 805 294 828 l 201 778 q 192 876 183 832 q 234 948 201 921 q 317 974 266 974 q 376 959 343 974 q 442 925 409 944 q 501 890 476 905 q 538 875 527 875 q 556 885 552 875 q 558 908 560 894 q 551 935 556 922 l 652 967 q 660 865 671 910 q 616 794 649 820 q 534 767 583 767 z "},"æ":{"ha":1201,"x_min":21,"x_max":1166,"o":"m 248 -18 q 131 11 183 -18 q 50 91 80 41 q 21 199 21 140 q 50 307 21 257 q 130 386 79 356 q 247 417 181 417 l 459 417 q 434 481 453 452 q 384 527 415 510 q 313 544 353 544 q 213 517 258 544 l 119 659 q 212 700 163 687 q 310 714 260 714 q 451 681 385 714 q 560 590 516 649 q 629 656 590 628 q 715 699 669 683 q 813 714 762 714 q 962 680 894 714 q 1076 585 1029 645 q 1145 449 1124 526 q 1154 290 1166 373 l 647 290 q 679 219 656 250 q 736 170 702 188 q 814 151 770 151 q 894 173 858 151 q 954 232 930 194 l 1127 192 q 1001 41 1085 99 q 813 -18 917 -18 q 705 0 756 -18 q 612 52 654 19 q 540 129 570 85 q 469 57 514 90 q 368 2 425 23 q 248 -18 311 -18 m 248 131 q 343 153 301 131 q 414 213 386 176 q 458 290 441 246 l 247 290 q 191 267 213 290 q 169 212 169 244 q 191 156 169 181 q 248 131 213 131 m 642 417 l 983 417 q 950 492 975 458 q 890 546 926 526 q 813 566 854 566 q 735 546 771 566 q 675 493 699 526 q 642 417 651 459 z "},"b":{"ha":861,"x_min":83,"x_max":819,"o":"m 453 714 q 638 665 554 714 q 770 532 721 615 q 819 349 819 449 q 791 206 819 273 q 712 89 763 140 q 595 10 662 39 q 453 -18 529 -18 q 337 11 388 -18 q 253 88 287 41 l 253 0 l 83 0 l 83 1042 l 253 1042 l 253 608 q 337 684 287 655 q 453 714 388 714 m 451 146 q 549 173 505 146 q 619 247 593 201 q 646 349 646 292 q 619 450 646 404 q 549 524 593 497 q 451 551 504 551 q 356 523 398 551 q 291 450 315 496 q 267 349 267 403 q 291 246 267 292 q 356 173 315 200 q 451 146 398 146 z "},"c":{"ha":708,"x_min":42,"x_max":667,"o":"m 514 209 l 667 126 q 547 22 619 61 q 389 -18 474 -18 q 214 31 293 -18 q 89 164 135 81 q 42 347 42 247 q 69 490 42 424 q 143 607 96 556 q 254 685 191 657 q 389 714 317 714 q 547 674 474 714 q 667 568 619 635 l 514 486 q 457 529 490 514 q 389 544 424 544 q 299 517 339 544 q 235 445 258 490 q 211 347 211 400 q 235 250 211 295 q 299 178 258 206 q 389 151 339 151 q 458 167 425 151 q 514 209 490 183 z "},"ç":{"ha":708,"x_min":42,"x_max":667,"o":"m 514 209 l 667 126 q 547 22 619 61 q 421 -17 488 -10 l 413 -30 q 457 -60 438 -40 q 482 -110 475 -81 q 469 -203 495 -159 q 394 -261 444 -248 q 300 -249 344 -274 q 242 -174 256 -223 l 328 -151 q 344 -171 332 -164 q 371 -174 357 -178 q 392 -159 385 -171 q 395 -132 399 -147 q 380 -112 392 -118 q 353 -108 368 -106 l 264 -111 l 321 -11 q 215 31 264 0 q 89 164 135 81 q 42 347 42 247 q 69 490 42 424 q 143 607 96 556 q 254 685 191 657 q 389 714 317 714 q 547 674 474 714 q 667 568 619 635 l 514 486 q 457 529 490 514 q 389 544 424 544 q 299 517 339 544 q 235 445 258 490 q 211 347 211 400 q 235 250 211 295 q 299 178 258 206 q 389 151 339 151 q 458 167 425 151 q 514 209 490 183 z "},"d":{"ha":861,"x_min":42,"x_max":778,"o":"m 608 1042 l 778 1042 l 778 0 l 608 0 l 608 87 q 524 11 575 40 q 407 -18 474 -18 q 265 10 331 -18 q 149 89 199 39 q 70 206 99 140 q 42 347 42 272 q 70 489 42 423 q 149 605 99 555 q 265 684 199 656 q 407 713 331 713 q 524 684 474 713 q 608 608 575 655 l 608 1042 m 409 145 q 505 172 463 145 q 570 245 547 199 q 594 347 594 292 q 570 450 594 403 q 505 523 547 496 q 409 550 463 550 q 311 523 356 550 q 241 449 267 495 q 215 347 215 403 q 242 245 215 291 q 312 172 268 199 q 409 145 356 145 z "},"ð":{"ha":782,"x_min":56,"x_max":754,"o":"m 303 715 l 221 798 l 307 883 q 240 890 276 890 l 238 1060 q 437 1010 347 1060 l 526 1097 l 607 1015 l 532 941 q 613 847 576 900 q 717 622 681 749 q 754 357 753 496 q 709 163 754 247 q 585 30 664 78 q 406 -18 507 -18 q 230 29 309 -18 q 103 156 150 76 q 56 331 56 235 q 83 466 56 403 q 158 578 110 530 q 270 653 206 626 q 406 681 333 681 q 466 669 438 681 q 516 639 495 658 q 480 726 501 682 q 427 807 459 769 q 413 823 420 815 l 303 715 m 406 151 q 496 176 455 151 q 561 241 537 201 q 585 331 585 282 q 560 421 585 380 q 495 486 536 462 q 406 511 455 511 q 315 486 356 511 q 249 421 274 462 q 225 331 225 380 q 249 241 225 282 q 315 176 274 200 q 406 151 356 151 z "},"e":{"ha":777,"x_min":42,"x_max":743,"o":"m 389 -18 q 214 31 293 -18 q 89 164 135 81 q 42 348 42 247 q 69 490 42 424 q 143 607 96 556 q 254 685 191 657 q 389 714 317 714 q 538 680 470 714 q 653 585 606 645 q 722 449 700 526 q 731 290 743 373 l 224 290 q 256 220 233 251 q 312 170 278 189 q 389 151 346 152 q 470 173 433 151 q 531 232 506 194 l 703 192 q 577 41 661 99 q 389 -18 493 -18 m 218 417 l 560 417 q 527 492 552 458 q 467 546 503 526 q 389 566 431 566 q 312 546 347 566 q 252 493 276 526 q 218 417 227 459 z "},"é":{"ha":777,"x_min":42,"x_max":743,"o":"m 389 -18 q 214 31 293 -18 q 89 164 135 81 q 42 348 42 247 q 69 490 42 424 q 143 607 96 556 q 254 685 191 657 q 389 714 317 714 q 538 680 470 714 q 653 585 606 645 q 722 449 700 526 q 731 290 743 373 l 224 290 q 256 220 233 251 q 312 170 278 189 q 389 151 346 152 q 470 173 433 151 q 531 232 506 194 l 703 192 q 577 41 661 99 q 389 -18 493 -18 m 218 417 l 560 417 q 527 492 552 458 q 467 546 503 526 q 389 566 431 566 q 312 546 347 566 q 252 493 276 526 q 218 417 227 459 m 344 771 l 400 971 l 569 971 l 457 771 l 344 771 z "},"ê":{"ha":777,"x_min":42,"x_max":743,"o":"m 389 -18 q 214 31 293 -18 q 89 164 135 81 q 42 348 42 247 q 69 490 42 424 q 143 607 96 556 q 254 685 191 657 q 389 714 317 714 q 538 680 470 714 q 653 585 606 645 q 722 449 700 526 q 731 290 743 373 l 224 290 q 256 220 233 251 q 312 170 278 189 q 389 151 346 152 q 470 173 433 151 q 531 232 506 194 l 703 192 q 577 41 661 99 q 389 -18 493 -18 m 218 417 l 560 417 q 527 492 552 458 q 467 546 503 526 q 389 566 431 566 q 312 546 347 566 q 252 493 276 526 q 218 417 227 459 m 483 971 l 618 771 l 505 771 l 388 905 l 274 771 l 160 771 l 293 971 l 483 971 z "},"ë":{"ha":777,"x_min":42,"x_max":743,"o":"m 389 -18 q 214 31 293 -18 q 89 164 135 81 q 42 348 42 247 q 69 490 42 424 q 143 607 96 556 q 254 685 191 657 q 389 714 317 714 q 538 680 470 714 q 653 585 606 645 q 722 449 700 526 q 731 290 743 373 l 224 290 q 256 220 233 251 q 312 170 278 189 q 389 151 346 152 q 470 173 433 151 q 531 232 506 194 l 703 192 q 577 41 661 99 q 389 -18 493 -18 m 218 417 l 560 417 q 527 492 552 458 q 467 546 503 526 q 389 566 431 566 q 312 546 347 566 q 252 493 276 526 q 218 417 227 459 m 252 743 q 189 768 215 743 q 163 830 163 793 q 189 892 163 867 q 252 917 215 917 q 314 892 288 917 q 339 830 339 867 q 314 768 339 793 q 252 743 288 743 m 527 743 q 464 768 490 743 q 438 830 438 793 q 464 892 438 867 q 527 917 490 917 q 589 892 563 917 q 615 830 615 867 q 589 768 615 793 q 527 743 563 743 z "},"è":{"ha":777,"x_min":42,"x_max":743,"o":"m 389 -18 q 214 31 293 -18 q 89 164 135 81 q 42 348 42 247 q 69 490 42 424 q 143 607 96 556 q 254 685 191 657 q 389 714 317 714 q 538 680 470 714 q 653 585 606 645 q 722 449 700 526 q 731 290 743 373 l 224 290 q 256 220 233 251 q 312 170 278 189 q 389 151 346 152 q 470 173 433 151 q 531 232 506 194 l 703 192 q 577 41 661 99 q 389 -18 493 -18 m 218 417 l 560 417 q 527 492 552 458 q 467 546 503 526 q 389 566 431 566 q 312 546 347 566 q 252 493 276 526 q 218 417 227 459 m 207 971 l 376 971 l 432 771 l 319 771 l 207 971 z "},"f":{"ha":506,"x_min":35,"x_max":493,"o":"m 280 840 l 280 694 l 469 694 l 469 525 l 280 525 l 280 0 l 110 0 l 110 525 l 35 525 l 35 694 l 110 694 l 110 840 q 140 950 110 900 q 219 1029 169 999 q 330 1058 269 1058 q 417 1040 374 1058 q 493 985 460 1022 l 371 865 q 353 883 365 877 q 330 889 342 889 q 295 875 310 889 q 280 840 280 860 z "},"g":{"ha":851,"x_min":42,"x_max":768,"o":"m 599 694 l 768 694 l 768 -13 q 738 -150 768 -88 q 654 -255 707 -211 q 533 -323 601 -299 q 390 -347 465 -347 q 250 -317 317 -347 q 131 -236 183 -287 q 52 -118 79 -184 l 207 -48 q 249 -115 221 -86 q 314 -160 277 -144 q 390 -176 351 -176 q 468 -165 431 -176 q 535 -133 505 -154 q 582 -82 565 -112 q 599 -13 599 -51 l 599 85 q 517 10 566 39 q 403 -18 467 -18 q 263 10 328 -18 q 148 89 197 39 q 70 206 98 140 q 42 347 42 272 q 70 489 42 423 q 148 605 98 555 q 263 684 197 656 q 403 713 328 713 q 517 684 467 713 q 599 610 566 656 l 599 694 m 405 145 q 500 173 458 145 q 565 246 541 200 q 588 347 588 292 q 564 449 588 403 q 499 522 540 494 q 405 550 458 550 q 310 523 353 550 q 241 449 267 495 q 215 347 215 403 q 241 245 215 291 q 310 172 267 199 q 405 145 353 145 z "},"h":{"ha":775,"x_min":83,"x_max":719,"o":"m 719 439 l 719 0 l 550 0 l 550 394 q 530 469 550 435 q 476 523 510 503 q 401 542 442 542 q 327 523 360 542 q 273 469 293 503 q 253 394 253 435 l 253 0 l 84 0 l 83 1042 l 253 1042 l 253 633 q 338 692 289 670 q 444 714 388 714 q 583 677 520 714 q 682 577 645 640 q 719 439 719 515 z "},"i":{"ha":336,"x_min":81,"x_max":256,"o":"m 83 694 l 253 694 l 253 0 l 83 0 l 83 694 m 169 784 q 106 809 132 784 q 81 871 81 833 q 106 933 81 908 q 169 958 132 958 q 231 933 206 958 q 256 871 256 908 q 231 809 256 833 q 169 784 206 784 z "},"ı":{"ha":336,"x_min":83,"x_max":253,"o":"m 83 694 l 253 694 l 253 0 l 83 0 l 83 694 z "},"í":{"ha":336,"x_min":83,"x_max":349,"o":"m 83 694 l 253 694 l 253 0 l 83 0 l 83 694 m 124 771 l 180 971 l 349 971 l 237 771 l 124 771 z "},"î":{"ha":336,"x_min":-60,"x_max":397,"o":"m 83 694 l 253 694 l 253 0 l 83 0 l 83 694 m 263 971 l 398 771 l 285 771 l 168 905 l 53 771 l -60 771 l 73 971 l 263 971 z "},"ï":{"ha":336,"x_min":-58,"x_max":394,"o":"m 83 694 l 253 694 l 253 0 l 83 0 l 83 694 m 31 743 q -32 768 -6 743 q -58 830 -58 793 q -32 892 -58 867 q 31 917 -6 917 q 93 892 67 917 q 118 830 118 867 q 93 768 118 793 q 31 743 67 743 m 306 743 q 243 768 269 743 q 217 830 217 793 q 243 892 217 867 q 306 917 269 917 q 368 892 342 917 q 394 830 394 867 q 368 768 394 793 q 306 743 342 743 z "},"ì":{"ha":336,"x_min":-13,"x_max":253,"o":"m 83 694 l 253 694 l 253 0 l 83 0 l 83 694 m -13 971 l 156 971 l 212 771 l 99 771 l -13 971 z "},"j":{"ha":338,"x_min":-56,"x_max":258,"o":"m -56 -347 l -56 -178 q 16 -159 -16 -178 q 67 -109 48 -141 q 85 -39 85 -78 l 85 694 l 255 694 l 255 -39 q 214 -194 255 -124 q 102 -306 172 -264 q -56 -347 31 -347 m 172 784 q 108 809 134 784 q 83 871 83 833 q 108 933 83 908 q 171 958 134 958 q 233 933 208 958 q 258 871 258 908 q 233 809 258 833 q 172 784 208 784 z "},"k":{"ha":743,"x_min":83,"x_max":704,"o":"m 703 0 l 508 0 l 350 273 l 253 157 l 253 0 l 83 0 l 83 1042 l 253 1042 l 253 420 l 483 694 l 704 694 l 466 410 l 703 0 z "},"l":{"ha":336,"x_min":83,"x_max":253,"o":"m 83 0 l 83 1042 l 253 1042 l 253 0 l 83 0 z "},"m":{"ha":1234,"x_min":83,"x_max":1178,"o":"m 83 0 l 83 694 l 253 694 l 253 633 q 338 692 288 670 q 444 714 387 714 q 577 680 516 714 q 674 589 638 646 q 771 680 710 646 q 903 714 831 714 q 1042 677 980 714 q 1141 577 1104 640 q 1178 439 1178 515 l 1178 0 l 1009 0 l 1009 394 q 989 468 1009 434 q 936 522 969 501 q 863 542 903 542 q 789 523 822 542 q 735 469 756 503 q 715 394 715 436 l 715 0 l 546 0 l 546 394 q 526 469 546 436 q 474 523 507 503 q 399 542 440 542 q 326 522 359 542 q 273 468 292 501 q 253 394 253 434 l 253 0 l 83 0 z "},"n":{"ha":775,"x_min":83,"x_max":719,"o":"m 719 439 l 719 0 l 550 0 l 550 394 q 530 469 550 435 q 476 523 510 503 q 401 542 442 542 q 327 523 360 542 q 273 469 293 503 q 253 394 253 435 l 253 0 l 84 0 l 83 694 l 253 694 l 253 633 q 338 692 289 670 q 444 714 388 714 q 583 677 520 714 q 682 577 645 640 q 719 439 719 515 z "},"ñ":{"ha":775,"x_min":83,"x_max":719,"o":"m 719 439 l 719 0 l 550 0 l 550 394 q 530 469 550 435 q 476 523 510 503 q 401 542 442 542 q 327 523 360 542 q 273 469 293 503 q 253 394 253 435 l 253 0 l 84 0 l 83 694 l 253 694 l 253 633 q 338 692 289 670 q 444 714 388 714 q 583 677 520 714 q 682 577 645 640 q 719 439 719 515 m 520 767 q 459 785 494 767 q 389 826 424 803 q 328 861 354 848 q 293 865 302 875 q 282 842 284 856 q 287 805 280 828 l 188 778 q 178 876 169 832 q 220 948 188 921 q 303 974 252 974 q 362 959 329 974 q 428 925 395 944 q 488 890 462 905 q 524 875 513 875 q 542 885 538 875 q 544 908 547 894 q 538 935 542 922 l 638 967 q 646 865 657 910 q 602 794 635 820 q 520 767 569 767 z "},"o":{"ha":778,"x_min":42,"x_max":736,"o":"m 389 -18 q 214 31 293 -18 q 89 164 135 81 q 42 347 42 247 q 69 490 42 424 q 143 607 96 556 q 254 685 191 657 q 389 714 317 714 q 564 665 485 714 q 689 532 642 615 q 736 347 736 449 q 709 206 736 272 q 634 89 682 140 q 524 10 587 39 q 389 -18 461 -18 m 389 151 q 480 178 440 151 q 543 250 520 206 q 567 347 567 294 q 543 446 567 401 q 478 518 519 491 q 389 544 438 544 q 299 517 339 544 q 235 445 258 490 q 211 347 211 400 q 235 248 211 292 q 300 177 260 203 q 389 151 341 151 z "},"ó":{"ha":778,"x_min":42,"x_max":736,"o":"m 389 -18 q 214 31 293 -18 q 89 164 135 81 q 42 347 42 247 q 69 490 42 424 q 143 607 96 556 q 254 685 191 657 q 389 714 317 714 q 564 665 485 714 q 689 532 642 615 q 736 347 736 449 q 709 206 736 272 q 634 89 682 140 q 524 10 587 39 q 389 -18 461 -18 m 389 151 q 480 178 440 151 q 543 250 520 206 q 567 347 567 294 q 543 446 567 401 q 478 518 519 491 q 389 544 438 544 q 299 517 339 544 q 235 445 258 490 q 211 347 211 400 q 235 248 211 292 q 300 177 260 203 q 389 151 341 151 m 345 771 l 401 971 l 570 971 l 458 771 l 345 771 z "},"ô":{"ha":778,"x_min":42,"x_max":736,"o":"m 389 -18 q 214 31 293 -18 q 89 164 135 81 q 42 347 42 247 q 69 490 42 424 q 143 607 96 556 q 254 685 191 657 q 389 714 317 714 q 564 665 485 714 q 689 532 642 615 q 736 347 736 449 q 709 206 736 272 q 634 89 682 140 q 524 10 587 39 q 389 -18 461 -18 m 389 151 q 480 178 440 151 q 543 250 520 206 q 567 347 567 294 q 543 446 567 401 q 478 518 519 491 q 389 544 438 544 q 299 517 339 544 q 235 445 258 490 q 211 347 211 400 q 235 248 211 292 q 300 177 260 203 q 389 151 341 151 m 484 971 l 619 771 l 506 771 l 389 905 l 274 771 l 161 771 l 294 971 l 484 971 z "},"ö":{"ha":778,"x_min":42,"x_max":736,"o":"m 389 -18 q 214 31 293 -18 q 89 164 135 81 q 42 347 42 247 q 69 490 42 424 q 143 607 96 556 q 254 685 191 657 q 389 714 317 714 q 564 665 485 714 q 689 532 642 615 q 736 347 736 449 q 709 206 736 272 q 634 89 682 140 q 524 10 587 39 q 389 -18 461 -18 m 389 151 q 480 178 440 151 q 543 250 520 206 q 567 347 567 294 q 543 446 567 401 q 478 518 519 491 q 389 544 438 544 q 299 517 339 544 q 235 445 258 490 q 211 347 211 400 q 235 248 211 292 q 300 177 260 203 q 389 151 341 151 m 252 743 q 189 768 215 743 q 163 830 163 793 q 189 892 163 867 q 252 917 215 917 q 314 892 288 917 q 339 830 339 867 q 314 768 339 793 q 252 743 288 743 m 527 743 q 464 768 490 743 q 438 830 438 793 q 464 892 438 867 q 527 917 490 917 q 589 892 563 917 q 615 830 615 867 q 589 768 615 793 q 527 743 563 743 z "},"ò":{"ha":778,"x_min":42,"x_max":736,"o":"m 389 -18 q 214 31 293 -18 q 89 164 135 81 q 42 347 42 247 q 69 490 42 424 q 143 607 96 556 q 254 685 191 657 q 389 714 317 714 q 564 665 485 714 q 689 532 642 615 q 736 347 736 449 q 709 206 736 272 q 634 89 682 140 q 524 10 587 39 q 389 -18 461 -18 m 389 151 q 480 178 440 151 q 543 250 520 206 q 567 347 567 294 q 543 446 567 401 q 478 518 519 491 q 389 544 438 544 q 299 517 339 544 q 235 445 258 490 q 211 347 211 400 q 235 248 211 292 q 300 177 260 203 q 389 151 341 151 m 208 971 l 377 971 l 433 771 l 319 771 l 208 971 z "},"ø":{"ha":778,"x_min":42,"x_max":736,"o":"m 238 -52 l 118 17 l 154 79 q 72 199 103 129 q 42 347 42 268 q 69 490 42 424 q 143 607 96 556 q 254 685 191 657 q 389 714 317 714 q 450 708 420 714 q 507 692 480 702 l 541 749 l 660 680 l 624 617 q 706 497 676 567 q 736 347 736 428 q 709 206 736 272 q 634 89 682 140 q 524 10 587 39 q 389 -18 461 -18 q 328 -12 358 -18 q 270 5 298 -6 l 238 -52 m 238 222 l 431 556 q 344 552 386 566 q 270 507 303 538 q 218 432 237 476 q 199 338 199 388 q 209 274 199 303 q 238 222 219 245 m 347 140 q 435 144 394 131 q 509 189 476 158 q 560 263 542 219 q 579 357 579 306 q 568 421 579 391 q 540 474 558 451 l 347 140 z "},"õ":{"ha":778,"x_min":42,"x_max":736,"o":"m 389 -18 q 214 31 293 -18 q 89 164 135 81 q 42 347 42 247 q 69 490 42 424 q 143 607 96 556 q 254 685 191 657 q 389 714 317 714 q 564 665 485 714 q 689 532 642 615 q 736 347 736 449 q 709 206 736 272 q 634 89 682 140 q 524 10 587 39 q 389 -18 461 -18 m 389 151 q 480 178 440 151 q 543 250 520 206 q 567 347 567 294 q 543 446 567 401 q 478 518 519 491 q 389 544 438 544 q 299 517 339 544 q 235 445 258 490 q 211 347 211 400 q 235 248 211 292 q 300 177 260 203 q 389 151 341 151 m 497 767 q 436 785 471 767 q 366 826 401 803 q 305 861 331 848 q 269 865 278 875 q 258 842 260 856 q 263 805 256 828 l 164 778 q 155 876 145 832 q 196 948 164 921 q 280 974 228 974 q 339 959 306 974 q 405 925 372 944 q 464 890 438 905 q 501 875 490 875 q 519 885 515 875 q 521 908 523 894 q 514 935 519 922 l 615 967 q 623 865 633 910 q 579 794 612 820 q 497 767 546 767 z "},"œ":{"ha":1301,"x_min":42,"x_max":1267,"o":"m 389 -18 q 214 31 293 -18 q 89 164 135 81 q 42 347 42 247 q 69 490 42 424 q 143 607 96 556 q 254 685 191 657 q 389 714 317 714 q 491 697 442 714 q 581 649 540 680 q 651 578 622 619 q 722 649 681 619 q 811 697 763 680 q 914 714 860 714 q 1062 680 994 714 q 1177 586 1130 646 q 1246 451 1225 527 q 1256 290 1267 374 l 749 290 q 781 220 758 251 q 836 170 803 189 q 914 151 870 152 q 995 173 958 151 q 1055 232 1031 194 l 1228 192 q 1102 41 1186 99 q 914 -18 1018 -18 q 811 -1 860 -18 q 722 47 763 16 q 651 118 681 77 q 581 47 622 77 q 491 -1 540 16 q 389 -18 442 -18 m 389 151 q 480 178 440 151 q 543 250 520 206 q 567 347 567 294 q 543 446 567 401 q 478 518 519 491 q 389 544 438 544 q 299 517 339 544 q 235 445 258 490 q 211 347 211 400 q 235 248 211 292 q 300 177 260 203 q 389 151 341 151 m 742 417 l 1084 417 q 1051 493 1076 459 q 991 546 1027 526 q 914 566 956 566 q 836 547 872 566 q 776 493 800 527 q 742 417 751 460 z "},"p":{"ha":860,"x_min":83,"x_max":818,"o":"m 253 -347 l 83 -347 l 83 694 l 253 694 l 253 606 q 336 683 287 653 q 453 713 386 713 q 595 684 529 713 q 711 605 661 656 q 790 489 762 555 q 818 347 818 423 q 790 205 818 272 q 711 88 762 138 q 595 9 661 38 q 453 -19 529 -19 q 336 10 386 -19 q 253 87 287 40 l 253 -347 m 451 549 q 356 522 398 549 q 291 449 315 494 q 267 347 267 403 q 291 245 267 292 q 356 172 315 199 q 451 144 398 144 q 549 172 504 144 q 619 245 593 199 q 646 347 646 291 q 619 449 646 403 q 549 522 593 494 q 451 549 505 549 z "},"þ":{"ha":860,"x_min":83,"x_max":818,"o":"m 83 -347 l 83 972 l 253 972 l 253 606 q 336 683 287 653 q 453 713 386 713 q 595 684 529 713 q 711 605 661 656 q 790 489 762 555 q 818 347 818 423 q 790 205 818 272 q 711 88 762 138 q 595 9 661 38 q 453 -19 529 -19 q 336 10 386 -19 q 253 87 287 40 l 253 -347 l 83 -347 m 451 144 q 549 172 504 144 q 619 245 593 199 q 646 347 646 291 q 619 449 646 403 q 549 522 593 494 q 451 549 505 549 q 356 522 398 549 q 291 449 315 494 q 267 347 267 403 q 291 245 267 292 q 356 172 315 199 q 451 144 398 144 z "},"q":{"ha":860,"x_min":42,"x_max":776,"o":"m 407 -19 q 223 30 306 -19 q 91 163 140 79 q 42 347 42 246 q 70 489 42 423 q 149 605 99 555 q 265 684 199 656 q 407 713 331 713 q 524 683 474 713 q 607 606 574 653 l 607 694 l 776 694 l 776 -347 l 607 -347 l 607 87 q 524 10 574 40 q 407 -19 474 -19 m 409 549 q 311 522 356 549 q 241 449 267 494 q 215 347 215 403 q 241 245 215 291 q 311 172 267 199 q 409 144 356 144 q 505 172 463 144 q 569 245 546 199 q 593 347 593 292 q 569 449 593 403 q 504 522 546 494 q 409 549 463 549 z "},"r":{"ha":535,"x_min":83,"x_max":521,"o":"m 84 0 l 83 694 l 253 694 l 253 633 q 338 692 289 670 q 444 714 388 714 q 521 703 483 714 l 454 532 q 401 542 428 542 q 327 523 360 542 q 273 469 293 503 q 253 394 253 435 l 253 0 l 84 0 z "},"s":{"ha":603,"x_min":35,"x_max":569,"o":"m 288 -12 q 184 9 234 -9 q 94 60 133 28 q 35 136 56 92 l 178 197 q 205 168 186 183 q 250 142 224 152 q 307 131 276 131 q 357 139 333 131 q 396 161 381 146 q 411 201 411 176 q 393 241 411 226 q 349 262 376 255 q 297 276 322 269 q 175 317 231 289 q 84 389 118 344 q 49 495 49 433 q 86 614 49 564 q 181 691 122 664 q 308 718 240 718 q 459 684 390 718 q 569 587 528 649 l 435 508 q 408 539 425 524 q 368 562 390 553 q 322 573 346 572 q 265 567 290 574 q 223 544 239 560 q 208 499 208 527 q 228 460 208 473 q 279 440 249 447 q 335 425 308 433 q 450 376 397 405 q 537 304 504 347 q 568 203 569 262 q 528 85 568 135 q 424 8 488 35 q 288 -12 360 -18 z "},"ß":{"ha":795,"x_min":83,"x_max":753,"o":"m 83 0 l 83 624 q 110 759 83 697 q 185 870 137 822 q 296 945 233 918 q 431 972 359 972 q 570 936 508 972 q 669 838 633 900 q 706 696 706 775 q 696 624 706 662 q 665 555 687 587 q 607 506 644 524 q 681 474 652 498 q 725 416 709 450 q 747 345 741 383 q 753 273 753 308 q 715 133 753 194 q 613 36 677 72 q 470 0 549 0 l 419 0 l 394 145 l 453 145 q 528 164 494 145 q 582 215 562 183 q 602 285 602 247 q 582 353 602 322 q 528 403 562 384 q 453 424 494 422 l 394 426 l 394 564 l 412 567 q 474 587 446 570 q 519 632 502 604 q 536 696 536 660 q 519 761 536 732 q 474 809 502 791 q 412 826 446 826 q 332 805 368 826 q 274 747 295 783 q 253 667 253 711 l 253 0 l 83 0 z "},"t":{"ha":497,"x_min":49,"x_max":456,"o":"m 456 525 l 321 525 l 321 0 l 151 0 l 151 525 l 49 525 l 49 694 l 151 694 l 151 913 l 321 913 l 321 694 l 456 694 l 456 525 z "},"u":{"ha":747,"x_min":56,"x_max":692,"o":"m 56 257 l 56 694 l 225 694 l 225 301 q 245 227 225 260 q 299 173 265 193 q 373 153 333 153 q 448 173 415 153 q 501 227 481 193 q 522 301 522 260 l 522 694 l 691 694 l 692 0 l 522 0 l 522 63 q 436 4 485 26 q 331 -18 387 -18 q 192 19 255 -18 q 93 118 130 56 q 56 257 56 181 z "},"ú":{"ha":747,"x_min":56,"x_max":692,"o":"m 56 257 l 56 694 l 225 694 l 225 301 q 245 227 225 260 q 299 173 265 193 q 373 153 333 153 q 448 173 415 153 q 501 227 481 193 q 522 301 522 260 l 522 694 l 691 694 l 692 0 l 522 0 l 522 63 q 436 4 485 26 q 331 -18 387 -18 q 192 19 255 -18 q 93 118 130 56 q 56 257 56 181 m 350 772 l 406 972 l 575 972 l 463 772 l 350 772 z "},"û":{"ha":747,"x_min":56,"x_max":692,"o":"m 56 257 l 56 694 l 225 694 l 225 301 q 245 227 225 260 q 299 173 265 193 q 373 153 333 153 q 448 173 415 153 q 501 227 481 193 q 522 301 522 260 l 522 694 l 691 694 l 692 0 l 522 0 l 522 63 q 436 4 485 26 q 331 -18 387 -18 q 192 19 255 -18 q 93 118 130 56 q 56 257 56 181 m 489 972 l 624 772 l 510 772 l 394 906 l 279 772 l 166 772 l 299 972 l 489 972 z "},"ü":{"ha":747,"x_min":56,"x_max":692,"o":"m 56 257 l 56 694 l 225 694 l 225 301 q 245 227 225 260 q 299 173 265 193 q 373 153 333 153 q 448 173 415 153 q 501 227 481 193 q 522 301 522 260 l 522 694 l 691 694 l 692 0 l 522 0 l 522 63 q 436 4 485 26 q 331 -18 387 -18 q 192 19 255 -18 q 93 118 130 56 q 56 257 56 181 m 258 744 q 194 769 220 744 q 169 831 169 794 q 194 893 169 868 q 258 919 220 919 q 319 893 294 919 q 344 831 344 868 q 319 769 344 794 q 258 744 294 744 m 533 744 q 469 769 495 744 q 444 831 444 794 q 469 893 444 868 q 533 919 495 919 q 594 893 569 919 q 620 831 620 868 q 594 769 620 794 q 533 744 569 744 z "},"ù":{"ha":747,"x_min":56,"x_max":692,"o":"m 56 257 l 56 694 l 225 694 l 225 301 q 245 227 225 260 q 299 173 265 193 q 373 153 333 153 q 448 173 415 153 q 501 227 481 193 q 522 301 522 260 l 522 694 l 691 694 l 692 0 l 522 0 l 522 63 q 436 4 485 26 q 331 -18 387 -18 q 192 19 255 -18 q 93 118 130 56 q 56 257 56 181 m 213 972 l 382 972 l 438 772 l 324 772 l 213 972 z "},"v":{"ha":808,"x_min":42,"x_max":766,"o":"m 513 0 l 294 0 l 42 695 l 222 695 l 404 195 l 585 695 l 766 695 l 513 0 z "},"w":{"ha":1184,"x_min":42,"x_max":1142,"o":"m 442 0 l 274 0 l 42 694 l 208 694 l 358 245 l 508 694 l 676 694 l 826 245 l 976 694 l 1142 694 l 910 0 l 742 0 l 592 451 l 442 0 z "},"x":{"ha":828,"x_min":56,"x_max":773,"o":"m 56 0 l 310 349 l 58 695 l 267 695 l 414 493 l 562 695 l 771 695 l 519 349 l 773 0 l 564 0 l 414 206 l 265 0 l 56 0 z "},"y":{"ha":795,"x_min":56,"x_max":740,"o":"m 560 694 l 740 694 l 360 -347 l 180 -347 l 306 0 l 56 694 l 241 694 l 390 232 l 560 694 z "},"ý":{"ha":795,"x_min":56,"x_max":740,"o":"m 560 694 l 740 694 l 360 -347 l 180 -347 l 306 0 l 56 694 l 241 694 l 390 232 l 560 694 m 353 771 l 409 971 l 578 971 l 466 771 l 353 771 z "},"ÿ":{"ha":795,"x_min":56,"x_max":740,"o":"m 560 694 l 740 694 l 360 -347 l 180 -347 l 306 0 l 56 694 l 241 694 l 390 232 l 560 694 m 261 743 q 198 768 224 743 q 172 830 172 793 q 198 892 172 867 q 261 917 224 917 q 323 892 297 917 q 348 830 348 867 q 323 768 348 793 q 261 743 297 743 m 536 743 q 473 768 499 743 q 447 830 447 793 q 473 892 447 867 q 536 917 499 917 q 598 892 572 917 q 624 830 624 867 q 598 768 624 793 q 536 743 572 743 z "},"z":{"ha":704,"x_min":56,"x_max":649,"o":"m 649 525 l 299 169 l 649 169 l 649 0 l 56 0 l 56 169 l 405 525 l 56 525 l 56 694 l 649 694 l 649 525 z "},"ª":{"ha":832,"x_min":42,"x_max":776,"o":"m 607 694 l 776 694 l 776 0 l 607 0 l 599 86 q 524 11 571 40 q 413 -18 477 -18 q 269 11 336 -18 q 150 92 201 40 q 70 210 99 143 q 42 355 42 278 q 69 494 42 429 q 146 609 97 560 q 260 686 195 658 q 399 714 324 714 q 522 683 467 714 q 615 606 576 653 l 607 694 m 409 145 q 505 172 463 145 q 570 245 547 199 q 594 347 594 292 q 570 450 594 403 q 505 523 547 496 q 409 550 463 550 q 311 523 356 550 q 241 449 267 495 q 215 347 215 403 q 242 245 215 291 q 312 172 268 199 q 409 145 356 145 z "},"º":{"ha":778,"x_min":42,"x_max":736,"o":"m 389 -18 q 214 31 293 -18 q 89 164 135 81 q 42 347 42 247 q 69 490 42 424 q 143 607 96 556 q 254 685 191 657 q 389 714 317 714 q 564 665 485 714 q 689 532 642 615 q 736 347 736 449 q 709 206 736 272 q 634 89 682 140 q 524 10 587 39 q 389 -18 461 -18 m 389 151 q 480 178 440 151 q 543 250 520 206 q 567 347 567 294 q 543 446 567 401 q 478 518 519 491 q 389 544 438 544 q 299 517 339 544 q 235 445 258 490 q 211 347 211 400 q 235 248 211 292 q 300 177 260 203 q 389 151 341 151 z "},"¹":{"ha":313,"x_min":67,"x_max":213,"o":"m 112 568 l 112 905 l 67 905 l 81 1006 l 213 1006 l 213 568 l 112 568 z "},"²":{"ha":496,"x_min":67,"x_max":396,"o":"m 67 568 l 67 658 q 129 699 96 678 q 195 745 163 721 q 254 799 228 770 q 294 863 280 828 q 276 907 294 889 q 232 925 258 925 q 187 907 206 925 q 168 863 168 889 l 67 863 q 89 944 67 908 q 149 999 111 979 q 232 1019 187 1019 q 348 975 300 1019 q 396 863 396 931 q 383 808 396 834 q 348 758 369 783 q 301 712 326 734 q 250 669 275 690 l 390 669 l 390 568 l 67 568 z "},"³":{"ha":401,"x_min":50,"x_max":351,"o":"m 201 554 q 95 595 140 554 q 50 697 50 635 l 151 697 q 166 663 151 676 q 201 649 180 649 q 235 663 221 649 q 249 697 249 676 q 228 743 249 722 q 165 763 207 763 l 165 831 q 222 848 206 831 q 238 887 238 866 q 226 914 238 903 q 197 924 214 924 q 170 914 182 924 q 158 887 158 903 l 57 887 q 98 982 57 944 q 197 1019 140 1019 q 297 982 256 1019 q 338 887 338 944 q 330 839 338 862 q 308 799 322 816 q 340 753 329 779 q 351 697 351 728 q 306 595 351 635 q 201 554 262 554 z "},"⁴":{"ha":480,"x_min":67,"x_max":380,"o":"m 238 568 l 238 636 l 67 636 l 67 758 l 224 1006 l 339 1006 l 339 738 l 380 738 l 380 636 l 339 636 l 339 568 l 238 568 m 166 738 l 247 738 l 247 866 l 166 738 z "},"⁄":{"ha":313,"x_min":-194,"x_max":507,"o":"m -194 0 l 367 972 l 507 972 l -54 0 l -194 0 z "},"∕":{"ha":313,"x_min":-194,"x_max":507,"o":"m -194 0 l 367 972 l 507 972 l -54 0 l -194 0 z "},"½":{"ha":1122,"x_min":67,"x_max":1022,"o":"m 112 568 l 112 905 l 67 905 l 81 1006 l 213 1006 l 213 568 l 112 568 m 119 0 l 680 972 l 820 972 l 259 0 l 119 0 m 692 0 l 692 90 q 755 132 722 110 q 821 178 788 153 q 880 232 853 203 q 920 295 906 260 q 902 339 920 322 q 858 357 884 357 q 813 339 831 357 q 794 295 794 322 l 692 295 q 715 377 692 340 q 775 436 737 414 q 858 458 813 458 q 940 436 903 458 q 999 377 977 414 q 1022 295 1022 340 q 1008 241 1022 267 q 974 190 995 215 q 926 144 952 166 q 876 101 901 122 l 1015 101 l 1015 0 l 692 0 z "},"¼":{"ha":1106,"x_min":67,"x_max":1006,"o":"m 112 568 l 112 905 l 67 905 l 81 1006 l 213 1006 l 213 568 l 112 568 m 119 0 l 680 972 l 820 972 l 259 0 l 119 0 m 863 0 l 863 68 l 692 68 l 692 190 l 850 438 l 965 438 l 965 169 l 1006 169 l 1006 68 l 965 68 l 965 0 l 863 0 m 792 169 l 872 169 l 872 298 l 792 169 z "},"¾":{"ha":1193,"x_min":50,"x_max":1093,"o":"m 201 554 q 95 595 140 554 q 50 697 50 635 l 151 697 q 166 663 151 676 q 201 649 180 649 q 235 663 221 649 q 249 697 249 676 q 228 743 249 722 q 165 763 207 763 l 165 831 q 222 848 206 831 q 238 887 238 866 q 226 914 238 903 q 197 924 214 924 q 170 914 182 924 q 158 887 158 903 l 57 887 q 98 982 57 944 q 197 1019 140 1019 q 297 982 256 1019 q 338 887 338 944 q 330 839 338 862 q 308 799 322 816 q 340 753 329 779 q 351 697 351 728 q 306 595 351 635 q 201 554 262 554 m 206 0 l 767 972 l 908 972 l 347 0 l 206 0 m 951 0 l 951 68 l 780 68 l 780 190 l 938 438 l 1052 438 l 1052 169 l 1093 169 l 1093 68 l 1052 68 l 1052 0 l 951 0 m 879 169 l 960 169 l 960 298 l 879 169 z "},"\r":{"ha":833,"x_min":0,"x_max":0,"o":""},"﻿":{"ha":833,"x_min":0,"x_max":0,"o":""},"\u0000":{"ha":833,"x_min":0,"x_max":0,"o":""}," ":{"ha":694,"x_min":0,"x_max":0,"o":""}," ":{"ha":333,"x_min":0,"x_max":0,"o":""}," ":{"ha":333,"x_min":0,"x_max":0,"o":""}," ":{"ha":278,"x_min":0,"x_max":0,"o":""},"​":{"ha":0,"x_min":0,"x_max":0,"o":""},".":{"ha":313,"x_min":56,"x_max":230,"o":"m 142 -18 q 81 7 106 -18 q 56 69 56 33 q 81 131 56 105 q 142 156 106 156 q 204 131 178 156 q 230 69 230 105 q 204 7 230 33 q 142 -18 178 -18 z "},",":{"ha":351,"x_min":56,"x_max":268,"o":"m 56 -78 l 99 157 l 268 157 l 169 -78 l 56 -78 z "},":":{"ha":313,"x_min":56,"x_max":230,"o":"m 142 520 q 81 545 106 520 q 56 608 56 571 q 81 669 56 643 q 142 694 106 694 q 204 669 178 694 q 230 608 230 643 q 204 545 230 571 q 142 520 178 520 m 142 -18 q 81 7 106 -18 q 56 69 56 33 q 81 131 56 105 q 142 156 106 156 q 204 131 178 156 q 230 69 230 105 q 204 7 230 33 q 142 -18 178 -18 z "},";":{"ha":353,"x_min":56,"x_max":270,"o":"m 56 -78 l 99 157 l 268 157 l 169 -78 l 56 -78 m 183 520 q 121 545 147 520 q 96 607 96 571 q 121 669 96 643 q 183 694 147 694 q 244 669 219 694 q 270 607 270 643 q 244 545 270 571 q 183 520 219 520 z "},"…":{"ha":872,"x_min":56,"x_max":789,"o":"m 142 -18 q 81 7 106 -18 q 56 69 56 33 q 81 131 56 105 q 142 156 106 156 q 204 131 178 156 q 230 69 230 105 q 204 7 230 33 q 142 -18 178 -18 m 422 -18 q 361 7 386 -18 q 335 69 335 33 q 361 131 335 105 q 422 156 386 156 q 484 131 458 156 q 510 69 510 105 q 484 7 510 33 q 422 -18 458 -18 m 701 -18 q 640 7 665 -18 q 615 69 615 33 q 640 131 615 105 q 701 156 665 156 q 763 131 738 156 q 789 69 789 105 q 763 7 789 33 q 701 -18 738 -18 z "},"!":{"ha":312,"x_min":56,"x_max":228,"o":"m 71 292 l 71 972 l 214 972 l 214 292 l 71 292 m 143 -18 q 81 8 106 -18 q 56 70 56 33 q 81 131 56 106 q 143 156 106 156 q 203 131 178 156 q 228 70 228 106 q 203 8 228 33 q 143 -18 178 -18 z "},"¡":{"ha":306,"x_min":56,"x_max":228,"o":"m 142 713 q 203 687 178 713 q 228 624 228 662 q 203 564 228 589 q 142 538 178 538 q 81 564 106 538 q 56 624 56 589 q 81 687 56 662 q 142 713 106 713 m 213 403 l 213 -278 l 71 -278 l 71 403 l 213 403 z "},"?":{"ha":769,"x_min":56,"x_max":686,"o":"m 296 297 q 335 442 296 376 q 444 546 375 508 q 497 599 478 564 q 517 676 517 634 q 497 750 517 717 q 444 802 477 783 q 371 821 410 821 q 297 802 331 821 q 244 750 264 783 q 225 676 225 717 l 56 676 q 98 834 56 763 q 212 948 140 906 q 371 990 284 990 q 529 948 458 990 q 643 834 601 906 q 686 676 686 763 q 643 513 686 588 q 524 397 599 438 q 481 356 497 382 q 465 297 465 329 l 296 297 m 387 -18 q 325 8 350 -18 q 299 70 299 33 q 325 131 299 106 q 387 156 350 156 q 448 131 423 156 q 473 70 473 106 q 448 8 473 33 q 387 -18 423 -18 z "},"¿":{"ha":763,"x_min":56,"x_max":686,"o":"m 371 -296 q 213 -253 284 -296 q 98 -140 141 -211 q 56 18 56 -68 q 99 183 56 108 q 217 298 142 258 q 261 339 245 313 q 276 397 276 365 l 446 397 q 407 253 446 319 q 297 149 367 187 q 244 95 264 131 q 225 18 225 60 q 245 -55 225 -22 q 298 -107 265 -87 q 371 -126 331 -126 q 444 -107 411 -126 q 497 -55 477 -87 q 517 18 517 -22 l 686 18 q 644 -140 686 -68 q 530 -253 601 -211 q 371 -296 458 -296 m 355 538 q 294 564 319 538 q 269 624 269 589 q 294 687 269 662 q 355 713 319 713 q 417 687 392 713 q 442 624 442 662 q 417 564 442 589 q 355 538 392 538 z "},"·":{"ha":285,"x_min":56,"x_max":230,"o":"m 142 329 q 81 355 106 329 q 56 417 56 380 q 81 478 56 453 q 142 504 106 504 q 204 478 178 504 q 230 417 230 453 q 204 355 230 380 q 142 329 178 329 z "},"•":{"ha":344,"x_min":56,"x_max":288,"o":"m 172 301 q 89 334 123 301 q 56 417 56 368 q 89 499 56 465 q 172 533 123 533 q 254 499 220 533 q 288 417 288 465 q 254 334 288 368 q 172 301 220 301 z "},"*":{"ha":503,"x_min":35,"x_max":447,"o":"m 171 580 l 76 649 l 147 744 l 35 780 l 69 892 l 183 855 l 183 972 l 299 972 l 299 855 l 411 892 l 447 780 l 334 744 l 404 649 l 310 580 l 241 676 l 171 580 z "},"#":{"ha":1092,"x_min":56,"x_max":1037,"o":"m 992 610 l 877 610 l 810 363 l 927 363 l 883 199 l 767 199 l 713 0 l 544 0 l 598 199 l 341 199 l 288 0 l 119 0 l 172 199 l 56 199 l 100 363 l 215 363 l 283 610 l 165 610 l 210 773 l 326 773 l 379 972 l 549 972 l 495 773 l 751 773 l 804 972 l 974 972 l 921 773 l 1037 773 l 992 610 m 640 363 l 708 610 l 452 610 l 385 363 l 640 363 z "},"/":{"ha":563,"x_min":56,"x_max":507,"o":"m 507 972 l 225 -78 l 56 -78 l 338 972 l 507 972 z "},"\\":{"ha":561,"x_min":56,"x_max":506,"o":"m 336 -78 l 56 972 l 225 972 l 506 -78 l 336 -78 z "},"-":{"ha":611,"x_min":83,"x_max":528,"o":"m 83 501 l 528 501 l 528 332 l 83 332 l 83 501 z "},"­":{"ha":617,"x_min":90,"x_max":534,"o":"m 90 501 l 534 501 l 534 332 l 90 332 l 90 501 z "},"–":{"ha":861,"x_min":83,"x_max":778,"o":"m 83 501 l 778 501 l 778 332 l 83 332 l 83 501 z "},"—":{"ha":1417,"x_min":83,"x_max":1333,"o":"m 83 501 l 1333 501 l 1333 332 l 83 332 l 83 501 z "},"_":{"ha":861,"x_min":83,"x_max":778,"o":"m 83 92 l 778 92 l 778 -78 l 83 -78 l 83 92 z "},"(":{"ha":526,"x_min":83,"x_max":457,"o":"m 288 -78 q 170 74 215 -7 q 105 247 126 154 q 83 447 83 340 q 93 560 83 497 q 121 687 103 622 q 164 810 139 752 q 221 911 190 868 q 288 972 252 954 l 457 972 q 399 909 428 952 q 344 809 370 866 q 298 689 318 753 q 265 563 277 625 q 253 447 253 500 q 284 240 253 339 q 360 60 314 141 q 457 -78 407 -21 l 288 -78 z "},")":{"ha":526,"x_min":69,"x_max":443,"o":"m 69 -78 q 166 60 119 -21 q 243 240 213 141 q 274 447 273 339 q 261 563 273 500 q 229 689 249 625 q 182 809 208 753 q 127 909 156 866 q 69 972 99 952 l 239 972 q 306 911 274 954 q 362 810 337 868 q 406 687 388 752 q 433 560 424 622 q 443 447 443 497 q 422 247 443 340 q 356 74 401 154 q 239 -78 311 -7 l 69 -78 z "},"{":{"ha":570,"x_min":83,"x_max":501,"o":"m 426 -78 q 303 -45 358 -78 q 215 43 248 -12 q 183 165 183 98 l 183 335 q 167 366 182 353 q 132 388 152 378 q 98 412 113 398 q 83 447 83 426 q 98 482 83 468 q 132 507 113 496 q 167 530 152 517 q 183 558 182 542 l 183 729 q 215 851 183 796 q 303 939 248 906 q 426 972 358 972 l 501 972 l 501 803 l 426 803 q 389 793 406 803 q 362 766 372 783 q 352 729 352 749 l 352 553 q 338 513 351 529 q 310 482 325 497 q 285 447 294 467 q 310 411 295 426 q 338 381 325 397 q 352 342 351 365 l 352 165 q 362 128 352 144 q 388 101 372 111 q 426 92 405 92 l 501 92 l 501 -78 l 426 -78 z "},"}":{"ha":570,"x_min":69,"x_max":487,"o":"m 69 -78 l 69 92 l 144 92 q 181 101 165 92 q 208 128 198 111 q 218 165 218 144 l 218 342 q 232 381 219 365 q 260 411 244 397 q 284 447 275 426 q 260 482 275 467 q 232 513 245 497 q 218 553 219 529 l 218 729 q 208 766 218 749 q 181 793 198 783 q 144 803 165 803 l 69 803 l 69 972 l 144 972 q 267 939 212 972 q 355 851 322 906 q 388 729 388 796 l 388 558 q 403 530 388 542 q 437 507 417 517 q 472 482 457 496 q 487 447 487 468 q 472 412 487 426 q 437 388 457 398 q 403 366 417 378 q 388 335 388 353 l 388 165 q 355 43 388 98 q 267 -45 322 -12 q 144 -78 212 -78 l 69 -78 z "},"[":{"ha":445,"x_min":83,"x_max":376,"o":"m 376 92 l 376 -78 l 83 -78 l 83 972 l 376 972 l 376 803 l 253 803 l 253 92 l 376 92 z "},"]":{"ha":446,"x_min":69,"x_max":363,"o":"m 69 -78 l 69 92 l 193 92 l 193 803 l 69 803 l 69 972 l 363 972 l 363 -78 l 69 -78 z "},"‚":{"ha":317,"x_min":49,"x_max":262,"o":"m 49 -78 l 92 157 l 262 157 l 163 -78 l 49 -78 z "},"„":{"ha":573,"x_min":49,"x_max":517,"o":"m 49 -78 l 92 157 l 262 157 l 163 -78 l 49 -78 m 305 -78 l 348 157 l 517 157 l 418 -78 l 305 -78 z "},"“":{"ha":558,"x_min":83,"x_max":531,"o":"m 83 610 l 183 972 l 296 972 l 253 610 l 83 610 m 318 613 l 417 975 l 531 975 l 488 613 l 318 613 z "},"”":{"ha":558,"x_min":28,"x_max":475,"o":"m 28 610 l 71 972 l 240 972 l 141 610 l 28 610 m 263 610 l 306 972 l 475 972 l 376 610 l 263 610 z "},"″":{"ha":558,"x_min":28,"x_max":475,"o":"m 28 610 l 71 972 l 240 972 l 141 610 l 28 610 m 263 610 l 306 972 l 475 972 l 376 610 l 263 610 z "},"ʻ":{"ha":282,"x_min":42,"x_max":254,"o":"m 42 610 l 141 972 l 254 972 l 211 610 l 42 610 z "},"‘":{"ha":282,"x_min":42,"x_max":254,"o":"m 42 610 l 141 972 l 254 972 l 211 610 l 42 610 z "},"’":{"ha":282,"x_min":28,"x_max":240,"o":"m 28 610 l 71 972 l 240 972 l 141 610 l 28 610 z "},"′":{"ha":282,"x_min":28,"x_max":240,"o":"m 28 610 l 71 972 l 240 972 l 141 610 l 28 610 z "},"«":{"ha":817,"x_min":83,"x_max":747,"o":"m 292 181 l 83 417 l 292 652 l 465 652 l 257 417 l 465 181 l 292 181 m 574 181 l 366 417 l 574 652 l 747 652 l 540 417 l 747 181 l 574 181 z "},"»":{"ha":831,"x_min":69,"x_max":733,"o":"m 352 181 l 559 417 l 352 652 l 525 652 l 733 417 l 525 181 l 352 181 m 69 181 l 276 417 l 69 652 l 242 652 l 451 417 l 242 181 l 69 181 z "},"‹":{"ha":534,"x_min":83,"x_max":465,"o":"m 292 181 l 83 417 l 292 652 l 465 652 l 257 417 l 465 181 l 292 181 z "},"›":{"ha":534,"x_min":69,"x_max":451,"o":"m 69 181 l 276 417 l 69 652 l 242 652 l 451 417 l 242 181 l 69 181 z "},"\"":{"ha":409,"x_min":45,"x_max":364,"o":"m 45 610 l 45 972 l 161 972 l 161 610 l 45 610 m 248 610 l 248 972 l 364 972 l 364 610 l 248 610 z "},"'":{"ha":206,"x_min":45,"x_max":161,"o":"m 45 610 l 45 972 l 161 972 l 161 610 l 45 610 z "},"@":{"ha":1274,"x_min":56,"x_max":1218,"o":"m 637 -174 q 411 -133 516 -174 q 226 -17 306 -92 q 101 160 146 58 q 56 382 56 262 q 101 608 56 503 q 226 794 146 714 q 411 919 306 874 q 637 964 517 964 q 864 918 758 964 q 1049 793 969 873 q 1173 607 1128 713 q 1218 382 1218 502 q 1202 252 1218 316 q 1155 137 1186 188 q 1077 56 1123 86 q 971 25 1031 25 q 884 44 928 25 q 809 94 840 63 q 769 163 777 126 q 705 121 742 137 q 622 106 667 106 q 483 143 546 106 q 383 243 420 181 q 346 382 346 306 q 383 521 346 458 q 483 621 420 584 q 622 658 546 658 q 708 645 663 658 q 778 608 753 631 l 778 644 l 904 617 l 904 251 q 920 210 904 226 q 960 194 935 194 q 1011 227 992 194 q 1040 303 1031 260 q 1049 382 1049 347 q 1016 543 1049 468 q 927 674 984 618 q 796 763 870 731 q 637 794 722 794 q 477 763 552 794 q 346 674 403 731 q 257 543 290 617 q 225 382 225 468 q 257 226 225 297 q 345 103 289 155 q 477 23 402 51 q 637 -5 551 -5 l 637 -174 m 635 232 q 709 253 676 232 q 759 310 741 275 q 778 385 778 345 q 760 458 778 425 q 710 512 742 492 q 635 532 678 532 q 560 512 594 532 q 506 458 526 492 q 485 382 485 424 q 506 307 485 341 q 560 252 526 273 q 635 232 594 232 z "},"&":{"ha":994,"x_min":56,"x_max":938,"o":"m 354 -18 q 201 24 269 -18 q 95 134 134 65 q 56 281 56 202 q 64 359 56 326 q 92 424 72 392 q 147 493 113 456 q 235 584 182 531 q 186 636 206 613 q 155 681 167 659 q 138 726 143 703 q 133 778 133 749 q 163 892 133 842 q 244 972 194 942 q 354 1001 295 1001 q 466 971 416 1001 q 547 891 517 942 q 577 778 577 840 q 572 724 577 748 q 555 679 567 701 q 523 635 542 658 q 474 584 503 612 l 658 401 l 833 576 l 833 337 l 776 281 l 938 119 l 818 0 l 658 160 q 566 72 604 107 q 496 18 528 38 q 432 -10 465 -2 q 354 -18 399 -18 m 354 151 q 397 157 378 151 q 433 178 415 163 q 475 218 451 193 q 538 281 500 243 l 354 464 q 290 399 315 424 q 251 357 265 374 q 231 322 237 339 q 225 281 225 304 q 243 214 225 243 q 291 168 262 185 q 354 151 321 151 m 354 679 q 401 724 385 709 q 423 751 417 740 q 428 781 428 763 q 405 835 428 816 q 354 855 381 855 q 303 833 325 855 q 281 781 281 812 q 288 750 281 763 q 310 722 294 738 q 354 679 326 707 z "},"¶":{"ha":735,"x_min":56,"x_max":679,"o":"m 292 -210 l 292 499 q 173 531 226 499 q 88 616 119 563 q 56 736 56 670 q 88 855 56 801 q 173 940 119 908 q 292 972 226 972 l 461 972 l 461 -210 l 292 -210 m 510 -210 l 510 972 l 679 972 l 679 -210 l 510 -210 z "},"§":{"ha":765,"x_min":83,"x_max":682,"o":"m 377 -258 q 225 -224 294 -258 q 116 -127 156 -189 l 250 -48 q 277 -79 260 -65 q 317 -102 294 -93 q 363 -113 340 -112 q 420 -108 394 -115 q 461 -84 446 -101 q 477 -40 477 -67 q 457 2 477 -12 q 407 23 436 16 q 349 35 377 31 q 213 91 273 46 q 118 203 153 136 q 83 347 83 271 q 99 445 83 398 q 144 530 115 492 q 213 593 174 567 q 151 650 172 616 q 130 730 130 684 q 166 849 130 799 q 261 926 203 899 q 388 953 320 953 q 540 918 471 953 q 649 822 609 884 l 515 742 q 488 773 506 759 q 449 797 471 788 q 402 808 426 806 q 345 802 371 810 q 304 778 319 795 q 288 734 288 761 q 308 694 288 708 q 356 673 327 681 q 413 660 384 666 q 553 602 492 645 q 648 495 614 560 q 682 347 682 430 q 666 249 682 296 q 620 165 649 203 q 551 102 591 128 q 614 45 593 79 q 635 -35 635 11 q 599 -154 635 -104 q 504 -231 563 -204 q 377 -258 445 -258 m 390 186 q 461 209 428 186 q 513 268 494 232 q 533 346 533 305 q 512 431 533 394 q 454 488 491 468 q 371 508 417 508 q 303 485 335 508 q 252 424 272 461 q 233 347 233 388 q 253 266 233 302 q 309 208 274 229 q 390 186 344 186 z "},"©":{"ha":1324,"x_min":56,"x_max":1268,"o":"m 661 -222 q 426 -174 535 -222 q 233 -44 316 -127 q 102 149 149 39 q 56 385 56 259 q 102 620 56 510 q 233 813 149 730 q 426 943 316 897 q 661 990 535 990 q 897 943 787 990 q 1091 814 1007 897 q 1221 620 1174 731 q 1268 385 1268 510 q 1221 149 1268 259 q 1091 -44 1174 39 q 897 -174 1007 -127 q 661 -222 787 -222 m 661 -52 q 834 -18 754 -52 q 973 77 913 17 q 1065 217 1032 138 q 1099 385 1099 296 q 1065 553 1099 474 q 971 693 1031 633 q 832 787 911 753 q 661 821 752 821 q 490 786 569 821 q 351 691 410 751 q 258 552 292 631 q 225 385 225 474 q 260 213 225 292 q 355 74 294 133 q 494 -19 415 14 q 661 -52 573 -52 m 789 247 l 941 164 q 821 59 893 99 q 663 19 749 19 q 489 69 567 19 q 363 201 410 118 q 316 385 316 284 q 343 527 316 461 q 418 644 370 594 q 528 723 465 694 q 663 751 592 751 q 821 712 749 751 q 941 606 893 672 l 789 523 q 731 567 764 551 q 663 582 698 582 q 573 555 613 582 q 509 482 533 527 q 485 385 485 437 q 509 288 485 333 q 573 216 533 243 q 663 189 613 189 q 732 205 699 189 q 789 247 765 220 z "},"®":{"ha":781,"x_min":42,"x_max":739,"o":"m 390 277 q 255 304 317 277 q 143 380 192 331 q 68 491 95 428 q 42 626 42 554 q 69 761 42 698 q 144 872 96 824 q 255 947 192 920 q 390 974 317 974 q 527 947 463 974 q 638 870 590 919 q 713 759 686 822 q 739 626 739 697 q 711 490 739 553 q 636 378 684 426 q 525 304 588 331 q 390 277 462 277 m 390 399 q 505 429 453 399 q 587 511 556 460 q 617 626 617 563 q 587 740 617 689 q 505 822 556 792 q 390 853 453 853 q 276 822 327 853 q 194 740 224 792 q 163 626 163 689 q 194 511 163 563 q 276 429 224 460 q 390 399 327 399 m 294 488 l 294 783 l 409 783 q 473 756 447 783 q 499 690 499 728 q 485 641 499 663 q 450 608 472 619 l 520 488 l 442 488 l 377 597 l 363 597 l 363 488 l 294 488 m 363 665 l 409 665 q 424 672 418 665 q 431 690 431 680 q 424 708 431 701 q 409 715 418 715 l 363 715 l 363 665 z "},"™":{"ha":2103,"x_min":56,"x_max":2020,"o":"m 819 972 l 819 803 l 522 803 l 522 0 l 353 0 l 353 803 l 56 803 l 56 972 l 819 972 m 888 0 l 1077 972 l 1217 972 l 1454 349 l 1691 972 l 1831 972 l 2020 0 l 1847 0 l 1731 601 l 1512 22 l 1396 22 l 1177 601 l 1061 0 l 888 0 z "},"°":{"ha":635,"x_min":56,"x_max":579,"o":"m 318 489 q 184 525 244 489 q 90 621 125 562 q 56 750 56 681 q 91 880 56 821 q 185 975 126 940 q 318 1011 244 1011 q 451 975 392 1011 q 545 879 510 938 q 579 750 579 819 q 543 617 579 676 q 448 523 507 558 q 318 489 388 489 m 318 658 q 383 685 356 658 q 410 750 410 712 q 383 815 410 789 q 318 842 356 842 q 252 815 280 842 q 225 750 225 789 q 252 685 225 712 q 318 658 280 658 z "},"|":{"ha":364,"x_min":97,"x_max":267,"o":"m 97 972 l 267 972 l 267 -210 l 97 -210 l 97 972 z "},"¦":{"ha":336,"x_min":83,"x_max":253,"o":"m 83 311 l 253 311 l 253 -210 l 83 -210 l 83 311 m 83 972 l 253 972 l 253 451 l 83 451 l 83 972 z "},"¢":{"ha":758,"x_min":56,"x_max":703,"o":"m 345 0 l 345 143 q 198 206 264 158 q 94 328 132 255 q 56 488 56 401 q 94 647 56 574 q 198 768 132 719 q 345 831 264 817 l 345 972 l 462 972 l 462 831 q 601 775 538 819 q 703 668 664 732 l 556 583 q 490 644 531 622 q 404 667 449 667 q 315 642 356 667 q 249 577 274 618 q 225 488 225 537 q 250 397 225 438 q 315 331 274 356 q 404 307 356 307 q 490 330 449 307 q 556 390 531 352 l 703 306 q 601 199 664 242 q 462 143 538 156 l 462 0 l 345 0 z "},"¤":{"ha":713,"x_min":56,"x_max":658,"o":"m 138 185 l 56 267 l 145 358 q 113 441 121 397 q 113 531 105 486 q 147 615 122 575 l 56 706 l 138 787 l 228 697 q 311 730 267 722 q 402 730 356 738 q 486 699 447 722 l 576 787 l 658 706 l 569 617 q 603 532 594 577 q 603 441 612 486 q 570 355 595 395 l 658 267 l 576 185 l 488 272 q 402 240 448 248 q 312 240 357 231 q 226 274 267 248 l 138 185 m 358 351 q 425 370 395 352 q 473 418 456 388 q 491 485 491 448 q 473 554 491 524 q 424 600 454 583 q 358 618 394 617 q 290 599 319 618 q 242 550 260 581 q 225 485 225 520 q 243 417 225 448 q 292 369 261 387 q 358 351 322 351 z "},"$":{"ha":840,"x_min":56,"x_max":784,"o":"m 419 819 q 326 803 370 819 q 254 759 282 787 q 226 695 226 731 q 252 625 226 649 q 322 591 278 601 q 419 571 366 580 q 599 519 517 556 q 732 423 682 483 q 782 276 782 363 q 741 136 782 197 q 631 35 700 74 q 478 -14 562 -3 l 478 -156 l 362 -156 l 362 -14 q 230 22 292 -6 q 123 92 168 49 q 56 194 77 136 l 215 253 q 254 202 224 225 q 327 165 284 179 q 419 151 370 151 q 514 167 470 151 q 585 211 558 183 q 613 276 613 239 q 584 339 613 315 q 511 378 556 364 q 419 401 467 393 q 234 450 316 417 q 105 542 152 483 q 57 695 57 601 q 98 836 57 774 q 209 936 140 898 q 362 985 278 975 l 362 1128 l 478 1128 l 478 985 q 608 950 547 977 q 716 879 670 923 q 784 776 763 835 l 624 718 q 585 769 615 746 q 512 805 555 792 q 419 819 469 819 z "},"€":{"ha":778,"x_min":56,"x_max":723,"o":"m 723 -11 q 544 -8 630 -26 q 386 58 458 11 q 262 176 314 106 q 183 335 210 247 l 56 335 l 56 451 l 163 451 l 163 519 l 56 519 l 56 635 l 183 635 q 262 796 209 725 q 387 915 315 867 q 544 980 459 962 q 723 983 630 999 l 723 808 q 611 818 665 824 q 510 788 557 813 q 426 725 463 764 q 367 635 390 686 l 555 635 l 555 519 l 332 519 l 333 451 l 555 451 l 555 335 l 368 335 q 429 244 392 283 q 513 182 466 206 q 614 154 560 159 q 723 164 667 149 l 723 -11 z "},"£":{"ha":830,"x_min":56,"x_max":774,"o":"m 72 0 l 72 169 q 144 178 108 169 q 210 205 181 188 q 251 246 239 222 q 250 300 263 270 q 247 310 249 305 l 72 310 l 72 426 l 161 426 q 141 448 151 437 q 99 501 118 473 q 67 561 79 529 q 56 631 56 594 q 84 770 56 706 q 161 884 112 835 q 276 962 211 934 q 415 990 340 990 q 554 962 489 990 q 669 885 619 934 q 747 770 719 835 q 774 631 774 706 l 605 631 q 579 726 605 683 q 510 795 553 769 q 415 821 467 821 q 319 795 363 821 q 251 726 276 769 q 225 631 225 683 q 240 556 225 588 q 277 498 254 524 q 326 447 300 472 q 347 426 337 437 l 607 426 l 607 310 l 420 310 q 427 249 427 283 q 422 216 427 232 q 408 188 416 201 q 392 169 401 176 l 760 169 l 760 0 l 72 0 z "},"¥":{"ha":927,"x_min":45,"x_max":882,"o":"m 379 0 l 379 103 l 211 103 l 211 219 l 379 219 l 379 288 l 211 288 l 211 403 l 379 403 l 379 438 l 45 972 l 244 972 l 464 623 l 683 972 l 882 972 l 549 438 l 549 403 l 717 403 l 717 288 l 549 288 l 549 219 l 717 219 l 717 103 l 549 103 l 549 0 l 379 0 z "},"+":{"ha":806,"x_min":56,"x_max":750,"o":"m 318 69 l 318 332 l 56 332 l 56 501 l 318 501 l 318 764 l 488 764 l 488 501 l 750 501 l 750 332 l 488 332 l 488 69 l 318 69 z "},"−":{"ha":806,"x_min":56,"x_max":750,"o":"m 56 332 l 56 501 l 750 501 l 750 332 l 56 332 z "},"×":{"ha":722,"x_min":56,"x_max":666,"o":"m 175 111 l 56 231 l 240 417 l 56 603 l 175 722 l 360 536 l 546 722 l 666 603 l 480 417 l 666 231 l 546 111 l 360 297 l 175 111 z "},"÷":{"ha":806,"x_min":56,"x_max":750,"o":"m 56 332 l 56 501 l 750 501 l 750 332 l 56 332 m 403 760 q 468 733 441 760 q 495 667 495 705 q 468 602 495 629 q 403 574 441 574 q 336 602 363 574 q 310 667 310 629 q 336 733 310 705 q 403 760 363 760 m 403 259 q 468 231 441 259 q 496 166 496 203 q 468 100 496 128 q 403 73 441 73 q 336 100 363 73 q 310 166 310 128 q 336 231 310 203 q 403 259 363 259 z "},"=":{"ha":806,"x_min":56,"x_max":750,"o":"m 56 183 l 56 352 l 750 352 l 750 183 l 56 183 m 56 481 l 56 651 l 750 651 l 750 481 l 56 481 z "},">":{"ha":806,"x_min":56,"x_max":750,"o":"m 56 84 l 56 260 l 627 417 l 56 573 l 56 749 l 750 557 l 750 275 l 56 84 z "},"<":{"ha":806,"x_min":56,"x_max":750,"o":"m 750 78 l 56 275 l 56 557 l 750 756 l 750 579 l 178 417 l 750 253 l 750 78 z "},"±":{"ha":806,"x_min":56,"x_max":750,"o":"m 318 262 l 318 524 l 56 524 l 56 694 l 318 694 l 318 956 l 488 956 l 488 694 l 750 694 l 750 524 l 488 524 l 488 262 l 318 262 m 56 0 l 56 169 l 750 169 l 750 0 l 56 0 z "},"~":{"ha":906,"x_min":49,"x_max":858,"o":"m 667 276 q 570 295 622 276 q 465 337 517 313 q 365 380 412 361 q 281 398 317 398 q 245 386 259 398 q 227 356 232 375 q 224 317 222 338 l 58 319 q 74 435 49 381 q 150 523 100 490 q 265 557 201 557 q 357 538 310 557 q 451 494 404 519 q 542 450 498 469 q 622 431 585 431 q 658 442 644 431 q 678 472 672 453 q 681 513 684 491 l 848 511 q 838 396 858 449 q 775 309 819 342 q 667 276 731 276 z "},"¬":{"ha":710,"x_min":56,"x_max":655,"o":"m 485 201 l 485 463 l 56 463 l 56 633 l 655 633 l 655 201 l 485 201 z "},"^":{"ha":666,"x_min":56,"x_max":610,"o":"m 56 694 l 219 1146 l 447 1146 l 610 694 l 429 694 l 333 961 l 236 694 l 56 694 z "},"µ":{"ha":788,"x_min":56,"x_max":732,"o":"m 56 -300 l 56 694 l 225 694 l 225 340 q 247 242 225 286 q 309 171 269 197 q 399 145 349 145 q 486 171 450 145 q 543 242 523 197 q 563 340 563 286 l 563 694 l 732 694 l 732 0 l 563 0 l 563 83 q 480 9 528 37 q 371 -19 432 -19 q 291 -5 328 -19 q 225 34 254 10 l 225 -300 l 56 -300 z "},"%":{"ha":1047,"x_min":56,"x_max":992,"o":"m 145 0 l 706 972 l 902 972 l 341 0 l 145 0 m 265 551 q 160 578 208 551 q 84 653 113 606 q 56 758 56 700 q 84 865 56 818 q 161 940 113 913 q 265 967 208 967 q 369 939 322 967 q 444 864 416 911 q 472 758 472 817 q 443 652 472 699 q 367 578 415 605 q 265 551 320 551 m 265 667 q 329 693 302 667 q 356 758 356 720 q 329 824 356 797 q 265 850 302 850 q 199 824 226 850 q 172 758 172 797 q 199 693 172 720 q 265 667 226 667 m 783 5 q 678 34 725 5 q 603 110 631 63 q 575 213 575 158 q 604 319 575 272 q 680 394 633 367 q 783 422 728 422 q 890 392 842 422 q 964 316 937 363 q 992 213 992 268 q 964 108 992 156 q 888 33 935 61 q 783 5 840 5 m 783 121 q 849 148 822 121 q 876 213 876 175 q 849 278 876 251 q 783 306 822 306 q 718 278 745 306 q 691 213 691 251 q 718 148 691 175 q 783 121 745 121 z "},"↑":{"ha":850,"x_min":56,"x_max":794,"o":"m 340 88 l 340 629 l 176 465 l 56 585 l 425 954 l 794 585 l 675 465 l 510 629 l 510 88 l 340 88 z "},"↓":{"ha":849,"x_min":56,"x_max":794,"o":"m 424 88 l 56 457 l 175 577 l 339 413 l 339 954 l 508 954 l 508 413 l 674 577 l 794 457 l 424 88 z "},"�":{"ha":1132,"x_min":83,"x_max":1049,"o":"m 567 -18 q 493 -4 529 -18 q 428 39 457 10 l 140 326 q 97 392 111 356 q 83 465 83 428 q 98 539 83 503 q 140 603 113 575 l 428 890 q 493 933 457 919 q 567 947 529 947 q 640 933 604 947 q 704 890 675 919 l 992 603 q 1035 538 1021 574 q 1049 465 1049 503 q 1035 392 1049 428 q 992 326 1021 356 l 704 39 q 640 -3 676 11 q 567 -18 604 -18 m 570 179 q 611 197 594 179 q 628 238 628 214 q 611 279 628 263 q 570 295 594 295 q 529 279 546 295 q 512 238 512 263 q 529 197 512 214 q 570 179 546 179 m 508 357 l 625 357 l 625 358 q 646 394 625 382 q 712 458 688 417 q 736 549 736 499 q 713 636 736 597 q 649 700 689 676 q 561 723 610 723 q 473 700 513 723 q 410 636 433 676 q 387 549 387 597 l 503 549 q 520 590 503 573 q 561 607 537 607 q 603 590 586 607 q 620 549 620 573 q 613 518 620 532 q 592 497 605 503 q 530 440 552 477 q 508 358 508 402 l 508 357 z "},"̈":{"ha":0,"x_min":278,"x_max":729,"o":"m 367 743 q 303 768 329 743 q 278 830 278 793 q 303 892 278 867 q 367 917 329 917 q 428 892 403 917 q 453 830 453 867 q 428 768 453 793 q 367 743 403 743 m 642 743 q 578 768 604 743 q 553 830 553 793 q 578 892 553 867 q 642 917 604 917 q 703 892 678 917 q 729 830 729 867 q 703 768 729 793 q 642 743 678 743 z "},"̀":{"ha":0,"x_min":203,"x_max":428,"o":"m 203 971 l 372 971 l 428 771 l 315 771 l 203 971 z "},"́":{"ha":0,"x_min":288,"x_max":513,"o":"m 288 771 l 344 971 l 513 971 l 401 771 l 288 771 z "},"̃":{"ha":0,"x_min":202,"x_max":690,"o":"m 553 767 q 493 785 528 767 q 423 826 458 803 q 361 861 388 848 q 326 865 335 875 q 315 842 317 856 q 320 805 313 828 l 221 778 q 211 876 202 832 q 253 948 221 921 q 337 974 285 974 q 395 959 363 974 q 462 925 428 944 q 521 890 495 905 q 558 875 547 875 q 576 885 572 875 q 578 908 580 894 q 571 935 576 922 l 672 967 q 680 865 690 910 q 636 794 669 820 q 553 767 603 767 z "},"̄":{"ha":0,"x_min":182,"x_max":651,"o":"m 182 922 l 651 922 l 651 794 l 182 794 l 182 922 z "},"̣":{"ha":0,"x_min":278,"x_max":453,"o":"m 367 -306 q 303 -281 329 -306 q 278 -219 278 -256 q 303 -157 278 -182 q 366 -132 329 -132 q 428 -157 403 -132 q 453 -219 453 -182 q 428 -281 453 -256 q 367 -306 403 -306 z "},"¨":{"ha":1007,"x_min":278,"x_max":729,"o":"m 367 743 q 303 768 329 743 q 278 830 278 793 q 303 892 278 867 q 367 917 329 917 q 428 892 403 917 q 453 830 453 867 q 428 768 453 793 q 367 743 403 743 m 642 743 q 578 768 604 743 q 553 830 553 793 q 578 892 553 867 q 642 917 604 917 q 703 892 678 917 q 729 830 729 867 q 703 768 729 793 q 642 743 678 743 z "},"`":{"ha":716,"x_min":203,"x_max":428,"o":"m 203 971 l 372 971 l 428 771 l 315 771 l 203 971 z "},"´":{"ha":716,"x_min":288,"x_max":513,"o":"m 288 771 l 344 971 l 513 971 l 401 771 l 288 771 z "},"ˆ":{"ha":478,"x_min":10,"x_max":468,"o":"m 333 971 l 468 771 l 355 771 l 238 905 l 124 771 l 10 771 l 143 971 l 333 971 z "},"˚":{"ha":813,"x_min":278,"x_max":535,"o":"m 407 742 q 316 781 353 742 q 278 872 278 819 q 295 936 278 907 q 342 983 313 965 q 407 1000 372 1000 q 498 962 460 1000 q 535 872 535 924 q 498 780 535 818 q 407 742 460 742 m 407 824 q 440 838 426 824 q 453 872 453 852 q 440 904 453 890 q 407 917 426 917 q 374 904 388 917 q 360 872 360 890 q 374 838 360 852 q 407 824 388 824 z "},"˜":{"ha":869,"x_min":199,"x_max":687,"o":"m 550 770 q 489 788 524 770 q 419 828 454 806 q 358 864 384 851 q 323 868 332 878 q 312 845 314 859 q 317 808 310 831 l 217 781 q 208 879 199 835 q 250 950 217 924 q 333 977 282 977 q 392 962 359 977 q 458 927 425 947 q 517 893 492 908 q 554 878 543 878 q 572 888 568 878 q 574 911 576 897 q 567 938 572 925 l 668 970 q 676 868 687 913 q 632 797 665 823 q 550 770 599 770 z "},"¯":{"ha":833,"x_min":182,"x_max":651,"o":"m 182 922 l 651 922 l 651 794 l 182 794 l 182 922 z "},"¸":{"ha":888,"x_min":279,"x_max":532,"o":"m 431 -261 q 337 -249 381 -274 q 279 -174 292 -223 l 365 -151 q 381 -171 369 -164 q 408 -174 394 -178 q 429 -159 422 -171 q 432 -132 436 -147 q 417 -112 428 -118 q 390 -108 405 -106 l 301 -111 l 399 61 l 476 15 l 450 -30 q 493 -60 475 -40 q 519 -110 512 -81 q 506 -203 532 -159 q 431 -261 481 -248 z "},"ʼ":{"ha":369,"x_min":28,"x_max":240,"o":"m 28 610 l 71 972 l 240 972 l 141 610 l 28 610 z "}}}
